<svg xmlns="http://www.w3.org/2000/svg" xmlns:xlink="http://www.w3.org/1999/xlink" viewBox="0 0 402 223"><defs><linearGradient id="a" x1="201" y1="223" x2="201" gradientUnits="userSpaceOnUse"><stop offset="0.2" stop-color="#ff931e"/><stop offset="1" stop-color="#ff5576"/></linearGradient></defs><title>portfolio-imac</title><rect width="402" height="223" style="fill:url(#a)"/><path d="M142.08,61.89a9.9,9.9,0,0,1-3.89,3.27,11.57,11.57,0,0,1-4.78,1,12.87,12.87,0,0,1-4.9-.91,11,11,0,0,1-3.81-2.54,11.66,11.66,0,0,1-2.47-3.89,14.06,14.06,0,0,1,0-9.85,11.71,11.71,0,0,1,2.47-3.88,11.24,11.24,0,0,1,3.81-2.56,12.68,12.68,0,0,1,4.9-.92,11.64,11.64,0,0,1,4.44.84,8.81,8.81,0,0,1,3.61,2.82l-1.78,1.48a6.46,6.46,0,0,0-2.79-2.41,8.47,8.47,0,0,0-3.48-.76,10.26,10.26,0,0,0-4.11.79,9.15,9.15,0,0,0-3.12,2.18,9.63,9.63,0,0,0-2,3.27,12.23,12.23,0,0,0,0,8.12,9.63,9.63,0,0,0,2,3.27,9.16,9.16,0,0,0,3.12,2.18,10.25,10.25,0,0,0,4.11.79,8.56,8.56,0,0,0,3.71-.87,9,9,0,0,0,1.73-1.12,7.18,7.18,0,0,0,1.45-1.63Z" style="fill:#fff"/><path d="M144.65,57.93a8.5,8.5,0,0,1,.59-3.22,7.68,7.68,0,0,1,1.65-2.54,7.35,7.35,0,0,1,2.54-1.67,8.63,8.63,0,0,1,3.23-.59,8.5,8.5,0,0,1,3.22.59,7.47,7.47,0,0,1,4.21,4.21,9,9,0,0,1,0,6.44,7.46,7.46,0,0,1-4.21,4.21,8.49,8.49,0,0,1-3.22.59,8.62,8.62,0,0,1-3.23-.59,7.35,7.35,0,0,1-2.54-1.67,7.68,7.68,0,0,1-1.65-2.54A8.5,8.5,0,0,1,144.65,57.93Zm2,0a7.06,7.06,0,0,0,.41,2.43,5.67,5.67,0,0,0,1.2,2,5.83,5.83,0,0,0,1.91,1.34,6.61,6.61,0,0,0,5,0,5.83,5.83,0,0,0,1.91-1.34,5.68,5.68,0,0,0,1.2-2,7.34,7.34,0,0,0,0-4.85,5.68,5.68,0,0,0-1.2-2,5.83,5.83,0,0,0-1.91-1.34,6.61,6.61,0,0,0-5,0,5.82,5.82,0,0,0-1.91,1.34,5.67,5.67,0,0,0-1.2,2A7.05,7.05,0,0,0,146.63,57.93Z" style="fill:#fff"/><path d="M165.44,40.61h2V65.56h-2Z" style="fill:#fff"/><path d="M172.9,44.27a1.47,1.47,0,1,1,.43,1.06A1.43,1.43,0,0,1,172.9,44.27Zm.5,6h2V65.56h-2Z" style="fill:#fff"/><path d="M181,54.6c0-.29,0-.63,0-1s0-.82,0-1.24,0-.81,0-1.17,0-.64,0-.84h2q0,.86,0,1.65a5.12,5.12,0,0,0,.08,1h.1a5.35,5.35,0,0,1,2-2.16,5.77,5.77,0,0,1,3.23-.91,6.51,6.51,0,0,1,2.9.56,4.68,4.68,0,0,1,1.77,1.47,5.52,5.52,0,0,1,.89,2.1,11.94,11.94,0,0,1,.25,2.44v9.08h-2v-9a9.69,9.69,0,0,0-.17-1.8,4.78,4.78,0,0,0-.58-1.57,3,3,0,0,0-1.15-1.11,4,4,0,0,0-1.93-.41,5.63,5.63,0,0,0-2.06.38,4.44,4.44,0,0,0-1.68,1.15,5.59,5.59,0,0,0-1.12,1.95,8.29,8.29,0,0,0-.41,2.76v7.62h-2Z" style="fill:#fff"/><path d="M208.47,42.19h6.73a17.06,17.06,0,0,1,2.67.21,6.36,6.36,0,0,1,2.42.89,5.16,5.16,0,0,1,1.75,1.88,6.48,6.48,0,0,1,.68,3.18,4.82,4.82,0,0,1-1.06,3.1,5.19,5.19,0,0,1-3.14,1.75v.07a6.23,6.23,0,0,1,2.11.54A5.28,5.28,0,0,1,222.3,55a5.21,5.21,0,0,1,1.07,1.77,6.41,6.41,0,0,1,.38,2.24,6.23,6.23,0,0,1-.78,3.28,5.94,5.94,0,0,1-1.95,2,7.47,7.47,0,0,1-2.54,1,13.54,13.54,0,0,1-2.56.26h-7.46Zm2.18,10.1h4.52a7.63,7.63,0,0,0,2.74-.41,4.74,4.74,0,0,0,1.65-1,3,3,0,0,0,.79-1.27,4.65,4.65,0,0,0-.21-3.27A3.42,3.42,0,0,0,219,45a4.45,4.45,0,0,0-1.62-.68,9.28,9.28,0,0,0-1.95-.2h-4.82Zm0,11.29h5a8.56,8.56,0,0,0,3.08-.46,4.7,4.7,0,0,0,1.8-1.16,3.64,3.64,0,0,0,.84-1.47,5.32,5.32,0,0,0,.21-1.4,4.62,4.62,0,0,0-.5-2.21,4.4,4.4,0,0,0-1.29-1.5,5.31,5.31,0,0,0-1.8-.84,8,8,0,0,0-2-.26h-5.31Z" style="fill:#fff"/><path d="M227.84,57.93a8.51,8.51,0,0,1,.59-3.22,7.67,7.67,0,0,1,1.65-2.54,7.34,7.34,0,0,1,2.54-1.67,8.62,8.62,0,0,1,3.23-.59,8.51,8.51,0,0,1,3.22.59,7.46,7.46,0,0,1,4.21,4.21,9,9,0,0,1,0,6.44,7.46,7.46,0,0,1-4.21,4.21,8.5,8.5,0,0,1-3.22.59,8.61,8.61,0,0,1-3.23-.59,7.33,7.33,0,0,1-2.54-1.67,7.67,7.67,0,0,1-1.65-2.54A8.51,8.51,0,0,1,227.84,57.93Zm2,0a7.06,7.06,0,0,0,.41,2.43,5.66,5.66,0,0,0,1.2,2,5.83,5.83,0,0,0,1.91,1.34,6.6,6.6,0,0,0,5,0,5.82,5.82,0,0,0,1.91-1.34,5.68,5.68,0,0,0,1.21-2,7.34,7.34,0,0,0,0-4.85,5.67,5.67,0,0,0-1.21-2,5.81,5.81,0,0,0-1.91-1.34,6.6,6.6,0,0,0-5,0,5.82,5.82,0,0,0-1.91,1.34,5.65,5.65,0,0,0-1.2,2A7.05,7.05,0,0,0,229.82,57.93Z" style="fill:#fff"/><path d="M248.3,40.61h2V53h.07a5.35,5.35,0,0,1,2-2.16,5.77,5.77,0,0,1,3.23-.91,6.51,6.51,0,0,1,2.9.56,4.68,4.68,0,0,1,1.77,1.47,5.53,5.53,0,0,1,.89,2.1,11.94,11.94,0,0,1,.25,2.44v9.08h-2v-9a9.73,9.73,0,0,0-.16-1.8,4.77,4.77,0,0,0-.58-1.57,3,3,0,0,0-1.16-1.11,4,4,0,0,0-1.93-.41,5.62,5.62,0,0,0-2.06.38,4.44,4.44,0,0,0-1.68,1.15,5.62,5.62,0,0,0-1.12,1.95,8.29,8.29,0,0,0-.41,2.76v7.62h-2Z" style="fill:#fff"/><path d="M266.65,54.6q0-.43,0-1t0-1.24q0-.63,0-1.17t0-.84h2q0,.86,0,1.65a5.17,5.17,0,0,0,.08,1h.1a5.35,5.35,0,0,1,2-2.16,5.77,5.77,0,0,1,3.23-.91,6.51,6.51,0,0,1,2.9.56,4.68,4.68,0,0,1,1.77,1.47,5.53,5.53,0,0,1,.89,2.1,11.94,11.94,0,0,1,.25,2.44v9.08h-2v-9a9.73,9.73,0,0,0-.16-1.8,4.77,4.77,0,0,0-.58-1.57,3,3,0,0,0-1.16-1.11,4,4,0,0,0-1.93-.41,5.62,5.62,0,0,0-2.06.38,4.44,4.44,0,0,0-1.68,1.15A5.62,5.62,0,0,0,269,55.18a8.29,8.29,0,0,0-.41,2.76v7.62h-2Z" style="fill:#fff"/><path d="M133.45,84.65q0-.29.09-.69t.08-.82q0-.42.07-.78t.06-.56h1.32q0,.57-.11,1.1a3.36,3.36,0,0,0,0,.68,5.63,5.63,0,0,1,1.51-1.47,3.58,3.58,0,0,1,2-.57,2.81,2.81,0,0,1,.75.11l-.33,1.3a1.41,1.41,0,0,0-.48-.09,3.92,3.92,0,0,0-1.52.27,3.51,3.51,0,0,0-1.14.76,3.69,3.69,0,0,0-.77,1.13,5.38,5.38,0,0,0-.4,1.4L133.76,92h-1.32Z" style="fill:#fff"/><path d="M148.61,90a5.54,5.54,0,0,1-2.15,1.67,6.52,6.52,0,0,1-2.56.51,5,5,0,0,1-2.06-.4,3.92,3.92,0,0,1-1.47-1.11,4.14,4.14,0,0,1-.81-1.69,5.74,5.74,0,0,1-.05-2.17,6.25,6.25,0,0,1,2-3.79,6,6,0,0,1,1.76-1.12,5.42,5.42,0,0,1,2.1-.41,4.54,4.54,0,0,1,2,.41A3.75,3.75,0,0,1,148.69,83a3.8,3.8,0,0,1,.7,1.53,4.78,4.78,0,0,1,.06,1.74l-.13.92h-8.54a4,4,0,0,0,0,1.07,3.31,3.31,0,0,0,.43,1.27,3.11,3.11,0,0,0,1,1.06,3.32,3.32,0,0,0,1.84.44,4.73,4.73,0,0,0,2-.48,4.24,4.24,0,0,0,1.64-1.32Zm-.46-4a3.07,3.07,0,0,0-.09-1.28,2.62,2.62,0,0,0-.59-1,3,3,0,0,0-1-.71,3.3,3.3,0,0,0-1.33-.26,3.73,3.73,0,0,0-1.86.44,4.92,4.92,0,0,0-1.29,1,4.76,4.76,0,0,0-.76,1.11,3,3,0,0,0-.28.74Z" style="fill:#fff"/><path d="M160.09,87.69q-.11.75-.19,1.34t-.12,1.1q0,.51-.07.95t0,.88h-1.23a7.14,7.14,0,0,1,0-.79q0-.42.09-.86h0a4.49,4.49,0,0,1-1.62,1.45,4.85,4.85,0,0,1-2.21.46,4.92,4.92,0,0,1-1.28-.17,3,3,0,0,1-1.08-.53,2.22,2.22,0,0,1-.69-.93,2.72,2.72,0,0,1-.12-1.39,3,3,0,0,1,.86-1.85,4.64,4.64,0,0,1,1.62-1,7.58,7.58,0,0,1,1.9-.44q1-.1,1.74-.1h1.54l.09-.62a1.92,1.92,0,0,0-.55-1.89,3.08,3.08,0,0,0-2-.57,5.28,5.28,0,0,0-3.28,1.14l-.64-.9a5.74,5.74,0,0,1,2-1.07,6.87,6.87,0,0,1,2.11-.36,4.13,4.13,0,0,1,2.83.87,3,3,0,0,1,.71,2.81Zm-2.53-.84a12.08,12.08,0,0,0-1.64.11,6,6,0,0,0-1.45.37,3.39,3.39,0,0,0-1.1.7,1.82,1.82,0,0,0-.54,1.1,1.52,1.52,0,0,0,.09.82,1.46,1.46,0,0,0,.45.59,2.13,2.13,0,0,0,.69.35,2.77,2.77,0,0,0,.81.12,4.56,4.56,0,0,0,1.78-.31,3.44,3.44,0,0,0,1.93-1.93,5.31,5.31,0,0,0,.34-1.26l.09-.68Z" style="fill:#fff"/><path d="M165.57,75.32h1.32L164.56,92h-1.32Z" style="fill:#fff"/><path d="M170.87,75.32h1.32L169.86,92h-1.32Z" style="fill:#fff"/><path d="M176,95.1a4.57,4.57,0,0,1-1.24,1.56,2.91,2.91,0,0,1-1.84.57,3.86,3.86,0,0,1-.65-.05,4.94,4.94,0,0,1-.6-.14l.29-1.23.55.17a2.27,2.27,0,0,0,.59.08,1.39,1.39,0,0,0,.65-.15,2,2,0,0,0,.53-.4,3.44,3.44,0,0,0,.42-.54q.19-.3.34-.6L176.28,92l-2.71-10.21h1.47l2.18,8.56,4.47-8.56h1.41Z" style="fill:#fff"/><path d="M198.22,90.46a5.87,5.87,0,0,1-1.88,1.33,5.28,5.28,0,0,1-2.1.43,5.34,5.34,0,0,1-2.1-.4,4,4,0,0,1-1.54-1.11,4.31,4.31,0,0,1-.87-1.69,5.2,5.2,0,0,1-.09-2.15,6,6,0,0,1,.69-2.15A6.35,6.35,0,0,1,191.67,83a5.9,5.9,0,0,1,1.85-1.11,6.19,6.19,0,0,1,2.21-.4,4.31,4.31,0,0,1,2,.46,4.54,4.54,0,0,1,1.53,1.3l-1.17.79a4.1,4.1,0,0,0-1.12-1,2.72,2.72,0,0,0-1.41-.36,4.42,4.42,0,0,0-1.72.33,4.63,4.63,0,0,0-2.39,2.21,5.35,5.35,0,0,0-.52,1.62,4.25,4.25,0,0,0,0,1.62,3.32,3.32,0,0,0,.62,1.32,3.09,3.09,0,0,0,1.14.89,3.8,3.8,0,0,0,1.63.33,3.41,3.41,0,0,0,1.58-.39,4.86,4.86,0,0,0,1.34-1Z" style="fill:#fff"/><path d="M200.22,86.87a6,6,0,0,1,.69-2.15A6.34,6.34,0,0,1,202.25,83a5.88,5.88,0,0,1,1.85-1.11,6.2,6.2,0,0,1,2.21-.4,5.26,5.26,0,0,1,2.09.4,4.07,4.07,0,0,1,2.41,2.81,5.59,5.59,0,0,1,.1,2.15,6.54,6.54,0,0,1-.7,2.15,6.06,6.06,0,0,1-5.39,3.2,5.35,5.35,0,0,1-2.1-.4,4,4,0,0,1-1.54-1.11,4.31,4.31,0,0,1-.87-1.69A5.2,5.2,0,0,1,200.22,86.87Zm1.32,0a4.25,4.25,0,0,0,0,1.62,3.31,3.31,0,0,0,.62,1.32,3.09,3.09,0,0,0,1.14.89A3.81,3.81,0,0,0,205,91a4.43,4.43,0,0,0,1.72-.33,4.63,4.63,0,0,0,2.39-2.21,5.37,5.37,0,0,0,.52-1.62,4.26,4.26,0,0,0,0-1.62,3.3,3.3,0,0,0-.62-1.32,3.09,3.09,0,0,0-1.14-.89,3.81,3.81,0,0,0-1.63-.33,4.42,4.42,0,0,0-1.71.33,4.62,4.62,0,0,0-2.39,2.21A5.35,5.35,0,0,0,201.54,86.87Z" style="fill:#fff"/><path d="M213.29,86.87a6,6,0,0,1,.69-2.15A6.35,6.35,0,0,1,215.32,83a5.89,5.89,0,0,1,1.85-1.11,6.19,6.19,0,0,1,2.21-.4,5.26,5.26,0,0,1,2.09.4,4.07,4.07,0,0,1,2.41,2.81,5.61,5.61,0,0,1,.1,2.15,6.51,6.51,0,0,1-.7,2.15,6.06,6.06,0,0,1-5.39,3.2,5.35,5.35,0,0,1-2.1-.4,4,4,0,0,1-1.54-1.11,4.32,4.32,0,0,1-.87-1.69A5.19,5.19,0,0,1,213.29,86.87Zm1.32,0a4.25,4.25,0,0,0,0,1.62,3.31,3.31,0,0,0,.62,1.32,3.1,3.1,0,0,0,1.14.89A3.8,3.8,0,0,0,218,91a4.43,4.43,0,0,0,1.72-.33,4.63,4.63,0,0,0,2.39-2.21,5.34,5.34,0,0,0,.52-1.62,4.25,4.25,0,0,0,0-1.62,3.31,3.31,0,0,0-.62-1.32,3.09,3.09,0,0,0-1.14-.89,3.8,3.8,0,0,0-1.63-.33,4.42,4.42,0,0,0-1.72.33,4.63,4.63,0,0,0-2.39,2.21A5.37,5.37,0,0,0,214.61,86.87Z" style="fill:#fff"/><path d="M228.77,75.32h1.32L227.76,92h-1.32Z" style="fill:#fff"/><path d="M247.52,91.3a7.82,7.82,0,0,1-1,3.06,6.16,6.16,0,0,1-1.63,1.8A5.25,5.25,0,0,1,243,97a8.08,8.08,0,0,1-1.75.22,7,7,0,0,1-2.83-.56,4.16,4.16,0,0,1-1.93-1.57l1.19-1a3.35,3.35,0,0,0,1.54,1.45,5.57,5.57,0,0,0,3.92.2,4.16,4.16,0,0,0,1.24-.69,4.11,4.11,0,0,0,.85-.95,5.22,5.22,0,0,0,.52-1,6.38,6.38,0,0,0,.28-1q.09-.46.13-.75l.2-1.41h0a5,5,0,0,1-1.75,1.45,5.17,5.17,0,0,1-2.37.53,5.09,5.09,0,0,1-2.06-.41,4.41,4.41,0,0,1-2.51-2.78,4.54,4.54,0,0,1-.14-2,5.43,5.43,0,0,1,.71-2,6.43,6.43,0,0,1,1.4-1.65,6.82,6.82,0,0,1,1.88-1.12,5.78,5.78,0,0,1,2.17-.42,4.33,4.33,0,0,1,2.22.53,3.29,3.29,0,0,1,1.34,1.45h0l.24-1.72h1.32Zm-.64-4.55a3.88,3.88,0,0,0-.1-1.57,3.25,3.25,0,0,0-.68-1.28,3.48,3.48,0,0,0-1.15-.86,3.55,3.55,0,0,0-1.52-.32,4.24,4.24,0,0,0-1.62.32,5.11,5.11,0,0,0-1.41.86,4.79,4.79,0,0,0-1,1.28,4.3,4.3,0,0,0-.53,1.57,3.84,3.84,0,0,0,.1,1.57,3.23,3.23,0,0,0,.68,1.28,3.46,3.46,0,0,0,1.15.86,3.55,3.55,0,0,0,1.52.32,4.24,4.24,0,0,0,1.62-.32,5.09,5.09,0,0,0,1.41-.86,4.75,4.75,0,0,0,1-1.28A4.3,4.3,0,0,0,246.88,86.74Z" style="fill:#fff"/><path d="M259.66,89.1c0,.19-.06.42-.09.69s-.05.55-.08.83,0,.54-.07.78,0,.43-.06.56h-1.32q0-.57.11-1.1a3.4,3.4,0,0,0,0-.68h-.07a4.3,4.3,0,0,1-.65.79,4.24,4.24,0,0,1-.87.65,4.85,4.85,0,0,1-1.06.44,4.27,4.27,0,0,1-1.19.17,4.05,4.05,0,0,1-1.89-.37,2.51,2.51,0,0,1-1-1,3.16,3.16,0,0,1-.38-1.4,8.67,8.67,0,0,1,.07-1.63l.84-6.05h1.32l-.84,6a6.7,6.7,0,0,0-.07,1.2,2.64,2.64,0,0,0,.24,1,1.71,1.71,0,0,0,.67.74,2.38,2.38,0,0,0,1.24.28,4,4,0,0,0,1.41-.25,3.64,3.64,0,0,0,1.23-.77,4.48,4.48,0,0,0,.93-1.3,6.14,6.14,0,0,0,.54-1.84l.7-5.08h1.32Z" style="fill:#fff"/><path d="M265.29,95.1a4.57,4.57,0,0,1-1.24,1.56,2.91,2.91,0,0,1-1.84.57,3.88,3.88,0,0,1-.65-.05A4.93,4.93,0,0,1,261,97l.29-1.23.55.17a2.28,2.28,0,0,0,.59.08,1.39,1.39,0,0,0,.65-.15,2,2,0,0,0,.53-.4A3.35,3.35,0,0,0,264,95c.13-.2.24-.4.34-.6L265.58,92l-2.71-10.21h1.47l2.18,8.56L271,81.79h1.41Z" style="fill:#fff"/><rect x="172" y="117" width="65" height="17" rx="8.5" ry="8.5" style="fill:#f15a24"/><path d="M178.54,121.41h1.16V125h4.42v-3.54h1.16v8.53h-1.16V126H179.7v3.9h-1.16Z" style="fill:#fff"/><path d="M187.47,121.41h1.16v8.53h-1.16Z" style="fill:#fff"/><path d="M190.82,121.41h3a3.51,3.51,0,0,1,1.35.22,2.28,2.28,0,0,1,.84.57,1.92,1.92,0,0,1,.43.77,3,3,0,0,1,.12.83,2.22,2.22,0,0,1-.56,1.48,2.38,2.38,0,0,1-.66.52,2.29,2.29,0,0,1-.87.26l2.42,3.89h-1.45l-2.17-3.76H192v3.76h-1.16Zm1.16,3.76h1.52a4.13,4.13,0,0,0,.67-.05,1.79,1.79,0,0,0,.59-.2,1.08,1.08,0,0,0,.42-.42,1.66,1.66,0,0,0,0-1.41,1.09,1.09,0,0,0-.42-.42,1.79,1.79,0,0,0-.59-.2,4.13,4.13,0,0,0-.67-.05H192Z" style="fill:#fff"/><path d="M198.19,121.41h5.51v1.08h-4.35V125h4v1.08h-4v2.74h4.57v1.08h-5.72Z" style="fill:#fff"/><path d="M208.9,121.41h1.16V125h4.42v-3.54h1.16v8.53h-1.16V126h-4.42v3.9H208.9Z" style="fill:#fff"/><path d="M217.83,121.41H219v8.53h-1.16Z" style="fill:#fff"/><path d="M221.09,121.41h1.72l2.71,6.46h0l2.69-6.46H230v8.53h-1.16v-7h0l-2.88,7h-.77l-2.88-7h0v7h-1.16Z" style="fill:#fff"/></svg>