<svg xmlns="http://www.w3.org/2000/svg" viewBox="0 0 380 234"><title>udacity-macbook</title><rect width="380" height="234" style="fill:#fff"/><path d="M142.33,121a7.67,7.67,0,0,1-7.93,7.45c-4.52,0-7.93-3.3-7.93-7.45V106.43H124v14.65c0,5.25,4,9.77,10.38,9.77s10.38-4.64,10.38-9.77V106.43h-2.44Zm26-14.53h-7.69v24.41h7.69c7.08,0,11.84-4.64,11.84-12.21S175.41,106.43,168.33,106.43Zm-.24,22h-5V108.87h5c5.74,0,9.64,4,9.64,9.77,0,6.1-3.78,9.77-9.64,9.77Zm68.24,0c-5.62,0-9.64-4.64-9.64-10.25a9.5,9.5,0,0,1,9.64-9.89,11.42,11.42,0,0,1,7.2,2.56l1.22-1.71s-2.81-3.05-8.54-3.05a11.86,11.86,0,0,0-12,12.08c0,6.84,5,12.7,12.08,12.7a12,12,0,0,0,9-4L244,125.23a11.53,11.53,0,0,1-7.69,3.17Zm24.41,2.44h2.44V106.43h-2.44Zm15.87-22h8.54v22h2.44v-22h8.54v-2.44H276.61Zm47.85-2.44-7.57,11-7.69-11h-2.69L315.67,120v10.86h2.44V120l9-13.55Zm-123.66,0-9.64,24.41h2.56l2.56-7,10.74-2.2,3.42,9.16H213l-9.64-24.41H200.8Zm-3.42,14.77,4.76-11.47h.12l4,9.77Z" style="fill:#2d3c49"/><path d="M68.24,93,52,102.4v21.48a17.87,17.87,0,0,0,17.82,17.94,18.75,18.75,0,0,0,9-2.32L92,131.94a16.38,16.38,0,0,0,8.79-14.53V95l-3.17-1.83-13.92,7.45V124a23.7,23.7,0,0,1-.24,2.93,17.29,17.29,0,0,1-.85,2.69l-.37.73a17.41,17.41,0,0,1-5.13-2.2,12.23,12.23,0,0,1-3.54-3.54,14.89,14.89,0,0,1-2.2-7.08V94.83Zm7.93,44.19a22.47,22.47,0,0,1-3.05,1.1,10.93,10.93,0,0,1-2.81.24,12,12,0,0,1-2.93-.37,17.29,17.29,0,0,1-2.69-.85A15.64,15.64,0,0,1,62.25,136a13.21,13.21,0,0,1-3.91-4A15.64,15.64,0,0,1,57,129.5a18.87,18.87,0,0,1-.85-2.81,5.49,5.49,0,0,1-.49-2.81V104.23l12.21-7.45v20.63a16.59,16.59,0,0,0,13.06,16,3.29,3.29,0,0,1-.85,1,11.68,11.68,0,0,1-3.91,2.81ZM96.92,120.1a14.27,14.27,0,0,1-.73,2.44,19.75,19.75,0,0,1-1.22,2.2,12.71,12.71,0,0,1-3.91,3.66,16.7,16.7,0,0,1-4.88,1.71A17,17,0,0,0,87.4,124V102.4l9.77-5.62v20.63A9.58,9.58,0,0,1,96.92,120.1Z" style="fill:#02b3e4"/></svg>