<?xml version="1.0" encoding="utf-8"?>
<!-- Generator: Adobe Illustrator 16.0.4, SVG Export Plug-In . SVG Version: 6.00 Build 0)  -->
<!DOCTYPE svg PUBLIC "-//W3C//DTD SVG 1.1//EN" "http://www.w3.org/Graphics/SVG/1.1/DTD/svg11.dtd">
<svg version="1.1" id="Layer_1" xmlns="http://www.w3.org/2000/svg" xmlns:xlink="http://www.w3.org/1999/xlink" x="0px" y="0px"
	 width="350px" height="100px" viewBox="0 0 350 100" enable-background="new 0 0 350 100" xml:space="preserve">
<g>
	<path fill="#CF7419" d="M186.896,65.276c0.908,1.616-2.856-5.06-10.626-5.562c-6.669-0.436-11.952,3.098-11.952,3.098
		s1.391-11.384,0.948-19.227c-0.096-1.706-1.265-6.198-1.265-6.198l1.645-0.252c0,0,0.708,1.47,1.264,4.806
		c1.014,6.072,0.191,17.013,0.191,17.013s1.644-1.707,8.601-1.898c6.958-0.189,11.783,8.385,11.783,8.385L186.896,65.276
		L186.896,65.276z"/>
	<path fill="#DB904B" d="M166.937,33.575l3.756,0.206c0,0,0.751,3.62,0.82,5.942c0.106,3.633-0.683,13.042-0.683,13.042
		s4.097-1.025,8.876,0.546c4.782,1.57,8.865,12.153,8.865,12.153h-0.539c0,0-4.364-9.217-9.691-10.241
		c-5.326-1.024-9.355,0.069-9.355,0.069s0.204-10.04,0-13.795C168.782,37.742,166.937,33.575,166.937,33.575L166.937,33.575z"/>
	<path fill="#E6B07D" d="M172.127,28.728c0,0,0.957,5.735,1.162,10.105c0.205,4.372-0.547,10.791-0.547,10.791
		s4.643,0.273,9.833,3.483c5.19,3.209,6.467,12.358,6.467,12.358l-0.134-17.223l-0.472-6.123c0,0-2.309-5.949-7.227-9.089
		C176.293,29.889,172.127,28.728,172.127,28.728L172.127,28.728z"/>
	<path fill="#CF7419" d="M191.263,65.465c0,0,2.872-5.519,10.652-6.024c6.669-0.434,11.951,3.101,11.951,3.101
		s-1.392-11.386-0.947-19.228c0.096-1.706,1.265-6.198,1.265-6.198l-1.646-0.252c0,0-0.709,1.47-1.263,4.806
		c-1.014,6.072-0.192,17.013-0.192,17.013s-1.643-1.708-8.602-1.896c-6.956-0.19-11.824,8.68-11.824,8.68H191.263L191.263,65.465z"
		/>
	<path fill="#DB904B" d="M211.247,33.303l-3.757,0.204c0,0-0.75,3.621-0.818,5.943c-0.105,3.634,0.683,13.043,0.683,13.043
		s-4.099-1.023-8.877,0.547c-4.78,1.569-9.098,12.425-9.098,12.425l0.741-0.067c0,0,4.396-9.422,9.722-10.445
		c5.325-1.024,9.354,0.068,9.354,0.068s-0.204-10.039,0-13.795C209.403,37.469,211.247,33.303,211.247,33.303L211.247,33.303z"/>
	<path fill="#E6B07D" d="M205.449,28.455c0,0-0.955,5.737-1.159,10.107c-0.206,4.371,0.547,10.79,0.547,10.79
		s-4.646,0.273-9.835,3.482c-5.19,3.209-5.96,12.631-5.96,12.631l-0.401-17.291l-0.068-5.987c0,0,2.88-6.289,7.796-9.43
		C201.284,29.616,205.449,28.455,205.449,28.455L205.449,28.455z"/>
	<polygon fill="#CF7419" points="191.397,66.742 186.958,66.742 186.958,65.935 191.397,65.935 191.397,66.742 	"/>
	<path fill="#00476C" d="M10.382,57.875c2.246,0,5.014-1.173,5.014-3.777c0-5.729-13.935-1.433-13.935-11.003
		c0-1.563,1.27-7.456,9.669-7.456c2.41,0,5.047,0.586,7.195,1.694c0.391,0.228,0.749,0.488,0.879,0.944
		c0.228,0.781,0.228,2.116,0.228,2.93c0,0.781-0.39,1.335-1.205,1.335c-1.758,0-1.498-4.623-6.836-4.623
		c-1.856,0-4.07,1.042-4.07,3.158c0,5.86,13.804,1.627,13.804,11.069c0,3.516-3.028,8.302-10.45,8.302
		c-8.009,0-10.092-4.33-10.092-5.729c0-0.912,0.651-1.791,1.595-1.791c0.879,0,1.139,0.195,2.571,2.344
		C5.531,56.441,7.354,57.875,10.382,57.875L10.382,57.875z"/>
	<path fill="#00476C" d="M29.883,55.173c0,1.464,0.162,2.278,1.855,2.278c1.172,0,2.214,0.032,2.214,1.27
		c0,1.172-1.335,1.237-2.181,1.237h-4.46c-2.051,0-2.735-0.293-2.735-2.507V46.87h-0.651c-0.944,0-1.953,0-1.953-1.27
		c0-0.846,0.586-1.042,1.302-1.171c0.879-0.131,1.66-0.229,2.181-1.01c0.423-0.684,0.781-2.148,0.912-2.962
		c0.228-1.205,0.488-1.628,1.791-1.628c1.498,0,1.726,0.195,1.726,1.563v3.906h1.823c0.976,0,2.018,0.032,2.018,1.302
		c0,1.139-1.042,1.27-1.953,1.27h-1.888V55.173L29.883,55.173z"/>
	<path fill="#00476C" d="M45.899,51.688c0,3.387,0,3.419-0.683,4.525c-0.587,0.879-1.433,1.563-2.507,1.563
		c-1.335,0-2.051-1.107-2.051-2.345c0-2.604,2.344-3.744,4.656-3.744H45.899L45.899,51.688z M51.173,50.354
		c0-3.809-2.409-6.315-8.074-6.315c-1.595,0-6.739,0.423-6.739,2.702c0,1.14,1.074,1.563,2.019,1.563c2.05,0,2.344-2.083,4.33-2.083
		c2.083,0,3.027,1.465,3.027,3.418h-1.107c-3.581,0-9.44,1.139-9.44,5.762c0,3.354,2.799,5.047,5.86,5.047
		c1.985,0,3.939-0.685,5.046-2.506c0,1.464,0,2.018,1.627,2.018h3.386c0.781,0,1.758,0,1.758-1.042c0-0.553-0.358-0.781-1.074-1.139
		c-0.586-0.294-0.619-0.75-0.619-2.279V50.354L51.173,50.354z"/>
	<path fill="#00476C" d="M71.521,55.563c0,1.595,0,1.985,0.488,2.344c0.521,0.228,0.813,0.456,0.813,1.009
		c0,1.009-0.813,1.042-1.53,1.042h-4.851c-0.716,0-1.53-0.033-1.53-1.042c0-0.553,0.293-0.781,0.814-1.009
		c0.489-0.358,0.489-0.749,0.489-2.344v-4.981c0-1.791-0.065-3.81-2.41-3.81c-1.074,0-1.953,0.423-2.506,1.335
		c-0.489,0.782-0.489,1.791-0.489,2.669v4.787c0,1.595,0,1.985,0.489,2.344c0.52,0.228,0.813,0.456,0.813,1.009
		c0,1.009-0.813,1.042-1.53,1.042H55.73c-0.716,0-1.529-0.033-1.529-1.042c0-0.553,0.292-0.781,0.813-1.009
		c0.488-0.358,0.488-0.749,0.488-2.344v-5.958c0-1.139,0.13-1.726-0.977-2.279c-0.325-0.13-0.684-0.358-0.684-0.879
		c0-1.172,4.004-2.409,5.014-2.409c1.107,0,1.335,1.498,1.465,2.344c1.302-1.595,3.06-2.344,5.176-2.344
		c1.66,0,3.451,0.488,4.623,1.726c1.172,1.27,1.4,3.093,1.4,4.72V55.563L71.521,55.563z"/>
	<path fill="#00476C" d="M79.594,44.298c0.814-0.032,1.66,0.065,1.66,1.042c0,1.107-1.139,0.749-1.139,1.726
		c0,1.562,1.139,6.543,2.832,9.473C84.25,54,84.9,51.493,84.9,48.628c0-1.009,0.032-1.758-0.781-2.409
		c-0.325-0.293-0.586-0.554-0.586-1.01c0-0.813,0.879-0.912,1.498-0.912h4.298c0.78,0,1.757,0,1.757,1.01
		c0,1.042-1.107,0.716-1.107,1.725c0,1.66,1.042,6.088,2.897,9.506c1.107-2.083,2.702-6.543,2.702-8.822
		c0-1.791-1.465-1.205-1.465-2.54c0-0.847,0.977-0.879,1.791-0.879h1.693c0.911,0,2.019,0.032,2.019,0.912
		c0,0.391-0.195,0.651-0.456,0.944c-0.391,0.457-0.619,0.586-0.912,1.661c-1.368,4.981-2.996,10.255-4.721,11.916
		c-0.586,0.586-1.302,0.716-2.117,0.716c-1.171,0-1.79-0.163-2.506-1.107c-1.139-1.529-1.856-3.516-2.539-5.339
		c-0.684,1.823-1.465,3.646-2.572,5.21c-0.684,0.943-1.27,1.236-2.442,1.236c-2.117,0-2.572-0.879-3.484-2.768
		c-1.302-2.637-2.604-6.055-3.255-10.027c-0.099-0.585-0.163-0.912-0.424-1.14c-0.358-0.292-0.814-0.651-0.814-1.204
		c0-0.912,0.814-1.01,1.53-1.01H79.594L79.594,44.298z"/>
	<path fill="#00476C" d="M109.577,58.168c-3.125,0-3.646-3.647-3.646-6.089c0-2.409,0.749-5.729,3.712-5.729
		c2.897,0,3.613,3.223,3.613,5.567C113.255,54.456,112.833,58.168,109.577,58.168L109.577,58.168z M109.544,60.446
		c4.721,0,9.311-3.19,9.311-8.302c0-4.884-4.427-8.106-9.018-8.106c-6.121,0-9.506,4.265-9.506,8.27
		C100.331,57.158,104.173,60.446,109.544,60.446L109.544,60.446z"/>
	<path fill="#00476C" d="M129.762,58.168c-3.125,0-3.646-3.647-3.646-6.089c0-2.409,0.749-5.729,3.711-5.729
		c2.897,0,3.614,3.223,3.614,5.567C133.44,54.456,133.017,58.168,129.762,58.168L129.762,58.168z M129.729,60.446
		c4.72,0,9.311-3.19,9.311-8.302c0-4.884-4.428-8.106-9.018-8.106c-6.121,0-9.506,4.265-9.506,8.27
		C120.516,57.158,124.357,60.446,129.729,60.446L129.729,60.446z"/>
	<path fill="#00476C" d="M152.583,54.163c0,0.847-0.033,1.562-0.488,2.312c-0.554,0.846-1.497,1.367-2.506,1.367
		c-2.866,0-3.483-3.321-3.483-5.567c0-2.312,0.749-5.86,3.646-5.86c0.814,0,1.628,0.358,2.149,0.977
		c0.618,0.716,0.683,1.531,0.683,2.41V54.163L152.583,54.163z M152.583,45.112c-1.27-0.716-2.344-1.074-3.809-1.074
		c-4.786,0-8.302,3.679-8.302,8.465c0,4.396,3.125,7.943,7.553,7.943c1.986,0,3.68-0.651,4.786-2.506c0,1.464,0,2.018,1.693,2.018
		h3.32c0.75,0,1.759-0.033,1.759-1.042c0-0.553-0.358-0.781-0.814-1.009c-0.749-0.358-0.879-0.749-0.879-2.409V38.503
		c0-1.334-0.033-3.19-1.335-3.19c-1.009,0-2.864,0.619-4.265,1.009c-1.139,0.326-1.563,0.586-1.563,1.172
		c0,0.521,0.424,0.684,0.814,0.912c0.912,0.521,1.042,0.717,1.042,3.614V45.112L152.583,45.112z"/>
	<path fill="#00476C" d="M240.521,38.963c0.195,0.619,0.292,2.866,0.292,3.582c0,0.781-0.553,1.27-1.367,1.27
		c-0.879,0-1.302-0.814-1.595-1.66c-0.651-1.823-2.539-4.037-5.566-4.037c-4.656,0-7.489,4.427-7.489,9.799
		c0,2.768,0.814,9.767,7.651,9.767c4.558,0,5.925-3.907,7.618-3.907c0.619,0,1.139,0.521,1.139,1.14
		c0,2.019-4.134,5.633-9.929,5.633c-6.902,0-12.827-4.754-12.827-11.981c0-7.292,6.381-12.828,13.445-12.828
		c2.54,0,5.437,0.717,7.553,2.149C239.901,38.15,240.357,38.475,240.521,38.963L240.521,38.963z"/>
	<path fill="#00476C" d="M253.672,51.79c0,3.387,0,3.419-0.684,4.525c-0.586,0.88-1.432,1.563-2.507,1.563
		c-1.335,0-2.051-1.107-2.051-2.344c0-2.605,2.344-3.745,4.655-3.745H253.672L253.672,51.79z M258.946,50.456
		c0-3.809-2.409-6.315-8.074-6.315c-1.595,0-6.739,0.423-6.739,2.701c0,1.14,1.075,1.563,2.02,1.563
		c2.051,0,2.343-2.083,4.329-2.083c2.084,0,3.027,1.464,3.027,3.418h-1.106c-3.581,0-9.441,1.139-9.441,5.762
		c0,3.354,2.801,5.047,5.86,5.047c1.985,0,3.939-0.685,5.046-2.507c0,1.465,0,2.018,1.628,2.018h3.386c0.781,0,1.758,0,1.758-1.042
		c0-0.553-0.357-0.781-1.073-1.139c-0.587-0.294-0.619-0.749-0.619-2.279V50.456L258.946,50.456z"/>
	<path fill="#00476C" d="M263.243,49.707c0-1.139,0.13-1.725-0.977-2.279c-0.326-0.13-0.685-0.358-0.685-0.879
		c0-1.172,4.005-2.409,5.014-2.409c1.107,0,1.335,1.497,1.466,2.343c1.302-1.497,3.19-2.343,5.241-2.343
		c1.954,0,3.679,0.878,4.655,2.637c1.271-1.889,3.354-2.637,5.567-2.637c1.433,0,3.027,0.487,4.103,1.497
		c1.236,1.172,1.432,2.832,1.432,4.46v5.567c0,1.595,0,1.985,0.488,2.345c0.521,0.227,0.814,0.455,0.814,1.008
		c0,1.01-0.814,1.042-1.53,1.042h-4.851c-0.716,0-1.531-0.032-1.531-1.042c0-0.553,0.294-0.781,0.815-1.008
		c0.487-0.359,0.487-0.75,0.487-2.345v-4.786c0-1.562,0.032-3.809-2.116-3.809c-0.944,0-1.692,0.391-2.246,1.106
		c-0.586,0.782-0.586,1.921-0.586,2.865v4.623c0,1.595,0,1.985,0.488,2.345c0.521,0.227,0.814,0.455,0.814,1.008
		c0,1.01-0.814,1.042-1.53,1.042h-4.852c-0.716,0-1.53-0.032-1.53-1.042c0-0.553,0.294-0.781,0.814-1.008
		c0.488-0.359,0.488-0.75,0.488-2.345v-4.786c0-1.562,0.032-3.809-2.116-3.809c-0.944,0-1.692,0.391-2.246,1.106
		c-0.586,0.782-0.586,1.921-0.586,2.865v4.623c0,1.595,0,1.985,0.488,2.345c0.521,0.227,0.813,0.455,0.813,1.008
		c0,1.01-0.813,1.042-1.53,1.042h-4.851c-0.716,0-1.53-0.032-1.53-1.042c0-0.553,0.293-0.781,0.814-1.008
		c0.488-0.359,0.488-0.75,0.488-2.345V49.707L263.243,49.707z"/>
	<path fill="#00476C" d="M302.505,51.79c0,3.387,0,3.419-0.684,4.525c-0.586,0.88-1.432,1.563-2.507,1.563
		c-1.335,0-2.051-1.107-2.051-2.344c0-2.605,2.344-3.745,4.655-3.745H302.505L302.505,51.79z M307.779,50.456
		c0-3.809-2.41-6.315-8.074-6.315c-1.595,0-6.739,0.423-6.739,2.701c0,1.14,1.075,1.563,2.019,1.563c2.051,0,2.344-2.083,4.33-2.083
		c2.083,0,3.027,1.464,3.027,3.418h-1.106c-3.581,0-9.441,1.139-9.441,5.762c0,3.354,2.8,5.047,5.86,5.047
		c1.985,0,3.939-0.685,5.046-2.507c0,1.465,0,2.018,1.628,2.018h3.386c0.781,0,1.758,0,1.758-1.042c0-0.553-0.357-0.781-1.073-1.139
		c-0.587-0.294-0.619-0.749-0.619-2.279V50.456L307.779,50.456z"/>
	<path fill="#00476C" d="M328.125,55.665c0,1.595,0,1.985,0.489,2.345c0.521,0.227,0.813,0.455,0.813,1.008
		c0,1.01-0.813,1.042-1.529,1.042h-4.852c-0.717,0-1.53-0.032-1.53-1.042c0-0.553,0.294-0.781,0.813-1.008
		c0.489-0.359,0.489-0.75,0.489-2.345v-4.981c0-1.791-0.065-3.81-2.409-3.81c-1.074,0-1.953,0.423-2.507,1.335
		c-0.489,0.781-0.489,1.791-0.489,2.669v4.786c0,1.595,0,1.985,0.489,2.345c0.521,0.227,0.814,0.455,0.814,1.008
		c0,1.01-0.814,1.042-1.53,1.042h-4.852c-0.717,0-1.53-0.032-1.53-1.042c0-0.553,0.294-0.781,0.813-1.008
		c0.489-0.359,0.489-0.75,0.489-2.345v-5.958c0-1.139,0.13-1.725-0.977-2.279c-0.326-0.13-0.684-0.358-0.684-0.879
		c0-1.172,4.004-2.409,5.014-2.409c1.106,0,1.335,1.497,1.465,2.343c1.303-1.595,3.061-2.343,5.176-2.343
		c1.66,0,3.451,0.487,4.624,1.725c1.172,1.269,1.398,3.093,1.398,4.72V55.665L328.125,55.665z"/>
	<path fill="#00476C" d="M340.139,58.27c-3.125,0-3.646-3.646-3.646-6.089c0-2.409,0.748-5.729,3.712-5.729
		c2.896,0,3.613,3.223,3.613,5.567C343.817,54.558,343.395,58.27,340.139,58.27L340.139,58.27z M340.106,60.549
		c4.72,0,9.311-3.19,9.311-8.303c0-4.883-4.428-8.105-9.019-8.105c-6.12,0-9.506,4.264-9.506,8.269
		C330.893,57.26,334.734,60.549,340.106,60.549L340.106,60.549z"/>
	<polygon fill="#DB904B" points="193.794,20.703 194.437,13.634 196.487,20.679 202.312,20.556 197.795,22.999 200.017,28.808 
		195.906,24.478 192.354,29.437 193.724,23.405 188.986,21.593 193.794,20.703 	"/>
	<polygon fill="#FFFFFF" points="179.882,41.972 180.543,34.718 182.647,41.947 188.624,41.82 183.99,44.329 186.269,50.291 
		182.054,45.847 178.407,50.938 179.812,44.746 174.949,42.884 179.882,41.972 	"/>
	<polygon fill="#DB904B" points="213.043,17.085 213.688,10.019 215.736,17.062 221.561,16.939 217.046,19.382 219.267,25.192 
		215.159,20.861 211.604,25.821 212.975,19.789 208.235,17.975 213.043,17.085 	"/>
	<polygon fill="#DB904B" points="232.073,22.857 232.717,15.791 234.766,22.834 240.59,22.711 236.076,25.154 238.295,30.964 
		234.188,26.634 230.636,31.593 232.003,25.561 227.268,23.747 232.073,22.857 	"/>
	<polygon fill="#00678B" points="172.749,70.344 173.392,63.276 175.442,70.32 181.268,70.197 176.751,72.641 178.971,78.45 
		174.863,74.121 171.31,79.078 172.681,73.046 167.942,71.232 172.749,70.344 	"/>
	<polygon fill="#00678B" points="154.842,81.241 155.485,74.176 157.535,81.219 163.36,81.096 158.844,83.539 161.065,89.349 
		156.957,85.018 153.404,89.979 154.773,83.945 150.036,82.131 154.842,81.241 	"/>
	<polygon fill="#00678B" points="133.396,71.537 134.038,64.469 136.089,71.513 141.913,71.39 137.398,73.833 139.618,79.644 
		135.51,75.312 131.957,80.271 133.327,74.24 128.589,72.427 133.396,71.537 	"/>
	<path fill="#CF7419" d="M206.736,84.939c2.197,0,4.56-1.204,4.56-3.686c0-5.009-10.585-1.771-10.585-8.104
		c0-2.599,2.032-4.985,6.001-4.985c1.442,0,3.119,0.378,4.349,1.157c0.259,0.166,0.425,0.309,0.519,0.592
		c0.071,0.283,0.071,1.062,0.071,1.369c0,0.261,0.048,0.828-0.378,0.828c-0.661,0-1.465-2.741-5.151-2.741
		c-1.678,0-3.378,1.11-3.378,2.906c0,5.222,10.373,1.3,10.373,8.719c0,2.031-2.009,5.175-6.663,5.175
		c-5.033,0-6.403-3.284-6.403-4.206c0-0.378,0.212-0.757,0.638-0.757c0.401,0,0.614,0.308,0.803,0.639
		C202.672,83.924,204.35,84.939,206.736,84.939L206.736,84.939z"/>
	<path fill="#CF7419" d="M223.606,82.955c0.236,0,0.401,0.165,0.401,0.426c0,0.473-0.591,1.11-0.922,1.417
		c-0.945,0.851-2.055,1.371-3.473,1.371c-3.284,0-5.222-2.457-5.222-5.601c0-3.308,2.339-6.096,5.741-6.096
		c1.938,0,3.544,1.134,3.544,2.222c0,0.425-0.354,0.921-0.804,0.921c-1.369,0-0.897-1.984-3.236-1.984
		c-2.104,0-3.355,2.622-3.355,4.867c0,2.269,1.347,4.3,3.639,4.3c1.087,0,2.221-0.449,2.93-1.3
		C223.039,83.263,223.251,82.955,223.606,82.955L223.606,82.955z"/>
	<path fill="#CF7419" d="M226.394,70.551c0-0.78-0.448-0.874-0.897-1.04c-0.166-0.047-0.378-0.142-0.378-0.354
		c0-0.284,0.26-0.378,0.473-0.497c0.425-0.236,1.583-0.732,2.032-0.732c0.543,0,0.543,0.521,0.543,0.992v7.089
		c1.039-0.992,2.434-1.536,3.851-1.536c1.111,0,2.269,0.426,3.049,1.276c0.851,0.945,0.969,2.056,0.969,3.284v3.875
		c0,1.299,0.095,1.63,0.426,1.748c0.566,0.213,0.779,0.307,0.779,0.614c0,0.354-0.307,0.544-0.615,0.544h-2.575
		c-0.401,0-0.873,0.165-0.873-0.544c0-0.261,0.164-0.354,0.378-0.473l0.235-0.117c0.401-0.189,0.473-0.567,0.473-1.772v-4.324
		c0-1.796-0.969-2.812-2.693-2.812c-1.441,0-2.387,0.544-3.402,1.512v5.624c0,1.252,0,1.606,0.543,1.795
		c0.473,0.166,0.71,0.26,0.71,0.567c0,0.354-0.284,0.544-0.615,0.544h-2.764c-0.402,0-0.898,0-0.898-0.544
		c0-0.283,0.188-0.378,0.638-0.544c0.473-0.188,0.614-0.378,0.614-1.818V70.551L226.394,70.551z"/>
	<path fill="#CF7419" d="M244.398,75.631c2.622,0,4.017,2.149,4.017,4.583c0,3.095-2.056,4.796-4.063,4.796
		c-2.623,0-3.923-2.173-3.923-4.582C240.429,77.994,241.657,75.631,244.398,75.631L244.398,75.631z M244.446,74.473
		c-3.19,0-5.907,2.671-5.907,5.86c0,3.213,2.575,5.836,5.788,5.836c3.355,0,5.978-2.552,5.978-5.931
		C250.305,77.024,247.636,74.473,244.446,74.473L244.446,74.473z"/>
	<path fill="#CF7419" d="M257.63,75.631c2.623,0,4.017,2.149,4.017,4.583c0,3.095-2.056,4.796-4.064,4.796
		c-2.623,0-3.922-2.173-3.922-4.582C253.66,77.994,254.889,75.631,257.63,75.631L257.63,75.631z M257.677,74.473
		c-3.189,0-5.906,2.671-5.906,5.86c0,3.213,2.575,5.836,5.788,5.836c3.355,0,5.979-2.552,5.979-5.931
		C263.537,77.024,260.866,74.473,257.677,74.473L257.677,74.473z"/>
	<path fill="#CF7419" d="M266.018,70.551c0-0.78-0.449-0.874-0.897-1.04c-0.166-0.047-0.378-0.142-0.378-0.354
		c0-0.284,0.259-0.378,0.473-0.497c0.425-0.236,1.582-0.732,2.031-0.732c0.544,0,0.544,0.521,0.544,0.992v13.988
		c0,1.252,0,1.606,0.543,1.795c0.425,0.166,0.662,0.26,0.662,0.567c0,0.354-0.237,0.544-0.567,0.544h-2.765
		c-0.401,0-0.803,0-0.803-0.544c0-0.283,0.188-0.378,0.543-0.544c0.473-0.188,0.614-0.378,0.614-1.818V70.551L266.018,70.551z"/>
	<path fill="#CF7419" d="M280.784,72.158c0-1.938,0.165-2.435,2.315-2.435c5.316,0,7.773,2.859,7.773,7.514s-2.883,7.371-7.49,7.371
		c-2.669,0-2.599-0.519-2.599-2.953V72.158L280.784,72.158z M278.658,83.309c0,0.923,0.07,1.111-0.827,1.395
		c-0.308,0.095-0.591,0.189-0.591,0.567c0,0.521,0.449,0.544,0.851,0.544h6.119c7.703,0,9.073-6.097,9.073-8.602
		c0-2.811-0.969-5.244-3.284-6.97c-2.197-1.63-4.418-1.725-7.041-1.725h-4.867c-0.378,0-0.827,0.047-0.827,0.544
		c0,0.401,0.307,0.472,0.638,0.59c0.308,0.095,0.757,0.166,0.757,0.521V83.309L278.658,83.309z"/>
	<path fill="#CF7419" d="M295.387,71.354c0-0.756,0.59-1.274,1.322-1.274c0.709,0,1.275,0.519,1.275,1.229
		c0,0.826-0.566,1.346-1.369,1.346C295.882,72.653,295.387,72.063,295.387,71.354L295.387,71.354z M296.143,78.253
		c0-0.992,0-1.677-0.874-1.843c-0.354-0.071-0.639-0.165-0.639-0.449c0-0.283,0.095-0.448,1.489-1.086
		c0.259-0.119,0.803-0.402,1.086-0.402c0.354,0,0.709,0,0.709,2.954v5.481c0,1.347,0.023,1.606,0.591,1.818
		c0.378,0.143,0.614,0.236,0.614,0.567c0,0.473-0.354,0.521-0.78,0.521h-2.669c-0.378,0-0.804-0.048-0.804-0.521
		c0-0.307,0.188-0.425,0.449-0.496c0.804-0.213,0.827-0.566,0.827-1.535V78.253L296.143,78.253z"/>
	<path fill="#CF7419" d="M304.53,85.035c1.134,0,2.457-0.662,2.457-1.962c0-3.001-6.309-0.944-6.309-5.222
		c0-1.819,1.583-3.379,3.969-3.379c1.017,0,2.032,0.236,2.93,0.756c0.449,0.261,0.473,0.544,0.473,1.063
		c0,0.236,0.095,1.063-0.307,1.063c-0.685,0-1.252-1.772-3.355-1.772c-1.04,0-2.221,0.521-2.221,1.701
		c0,2.623,6.475,1.017,6.475,5.08c0,2.387-2.175,3.805-4.372,3.805c-1.725,0-4.017-1.063-4.017-2.481
		c0-0.307,0.26-0.685,0.591-0.685c0.945,0,0.945,1.11,1.771,1.488C303.207,84.774,303.963,85.035,304.53,85.035L304.53,85.035z"/>
	<path fill="#CF7419" d="M311.217,75.772c-1.182,0-1.891,0-1.891-0.686c0-0.378,0.425-0.449,0.779-0.449c0.473,0,0.945,0,1.182-0.59
		c0.213-0.521,0.473-1.82,0.52-2.411c0.048-0.424,0.071-1.369,0.686-1.369c0.496,0,0.496,0.566,0.496,0.897v3.473h1.819
		c0.614,0,1.11,0,1.11,0.544c0,0.591-0.496,0.591-1.016,0.591h-1.914v7.064c0,1.182,0.095,1.819,1.465,1.819
		c1.087,0,1.512,0,1.512,0.567c0,0.401-0.378,0.591-0.731,0.591h-3.119c-0.827,0-0.897-0.473-0.897-1.182V75.772L311.217,75.772z"/>
	<path fill="#CF7419" d="M318.398,78.348c0-1.087-0.495-1.631-1.016-1.866c-0.213-0.095-0.544-0.189-0.544-0.497
		c0-0.354,0.354-0.614,0.615-0.803c0.26-0.188,0.992-0.709,1.323-0.709c0.921,0,1.182,2.293,1.275,2.978
		c0.473-1.134,1.843-2.978,3.166-2.978c0.922,0,1.348,0.567,1.348,1.441c0,0.331-0.119,0.874-0.544,0.874
		c-0.401,0-0.969-0.496-1.441-0.496c-0.709,0-1.394,0.897-1.725,1.465c-0.449,0.756-0.686,1.489-0.686,2.505v2.646
		c0,1.394,0.095,1.63,0.52,1.795c0.426,0.166,0.614,0.26,0.614,0.544c0,0.52-0.378,0.567-0.779,0.567h-2.528
		c-0.378,0-0.804-0.023-0.804-0.567c0-0.26,0.189-0.378,0.733-0.614c0.354-0.142,0.472-0.284,0.472-1.725V78.348L318.398,78.348z"/>
	<path fill="#CF7419" d="M327.33,72.653c0.803,0,1.37-0.52,1.37-1.346c0-0.71-0.567-1.229-1.275-1.229
		c-0.732,0-1.323,0.519-1.323,1.274C326.102,72.063,326.598,72.653,327.33,72.653L327.33,72.653z M326.857,83.263
		c0,0.969-0.024,1.322-0.827,1.535c-0.26,0.071-0.449,0.189-0.449,0.496c0,0.473,0.426,0.521,0.804,0.521h2.67
		c0.426,0,0.779-0.048,0.779-0.521c0-0.331-0.235-0.425-0.613-0.567c-0.567-0.212-0.591-0.472-0.591-1.818v-5.481
		c0-2.954-0.354-2.954-0.709-2.954c-0.284,0-0.827,0.283-1.088,0.402c-1.393,0.638-1.487,0.803-1.487,1.086
		c0,0.284,0.283,0.378,0.637,0.449c0.875,0.166,0.875,0.851,0.875,1.843V83.263L326.857,83.263z"/>
	<path fill="#CF7419" d="M340.325,82.955c0.235,0,0.401,0.165,0.401,0.426c0,0.473-0.591,1.11-0.922,1.417
		c-0.945,0.851-2.056,1.371-3.473,1.371c-3.285,0-5.222-2.457-5.222-5.601c0-3.308,2.339-6.096,5.741-6.096
		c1.938,0,3.544,1.134,3.544,2.222c0,0.425-0.354,0.921-0.803,0.921c-1.371,0-0.898-1.984-3.237-1.984
		c-2.103,0-3.355,2.622-3.355,4.867c0,2.269,1.347,4.3,3.639,4.3c1.087,0,2.221-0.449,2.931-1.3
		C339.758,83.263,339.971,82.955,340.325,82.955L340.325,82.955z"/>
	<path fill="#CF7419" d="M343.35,75.772c-1.182,0-1.891,0-1.891-0.686c0-0.378,0.425-0.449,0.779-0.449c0.473,0,0.945,0,1.182-0.59
		c0.213-0.521,0.473-1.82,0.52-2.411c0.047-0.424,0.071-1.369,0.686-1.369c0.496,0,0.496,0.566,0.496,0.897v3.473h1.819
		c0.614,0,1.11,0,1.11,0.544c0,0.591-0.496,0.591-1.016,0.591h-1.914v7.064c0,1.182,0.095,1.819,1.465,1.819
		c1.087,0,1.512,0,1.512,0.567c0,0.401-0.378,0.591-0.732,0.591h-3.118c-0.827,0-0.897-0.473-0.897-1.182V75.772L343.35,75.772z"/>
</g>
</svg>
