<?xml version="1.0" encoding="UTF-8" standalone="no"?><!DOCTYPE svg PUBLIC "-//W3C//DTD SVG 1.1//EN" "http://www.w3.org/Graphics/SVG/1.1/DTD/svg11.dtd"><svg width="150" height="45" viewBox="0 0 200 60" version="1.1" xmlns="http://www.w3.org/2000/svg" xmlns:xlink="http://www.w3.org/1999/xlink" xml:space="preserve" xmlns:serif="http://www.serif.com/" style="fill-rule:evenodd;clip-rule:evenodd;stroke-linejoin:round;stroke-miterlimit:2;"><path d="M26.899,45.085c-0.64,0.091 -1.694,0.457 -2.509,0.806c-2.098,0.9 -6.199,3.035 -14.771,6.099c0,0 11.394,-37.655 12.35,-40.893c0.175,-0.59 0.311,-1.21 0.343,-1.822c0.082,-1.611 -0.884,-2.955 -2.365,-3.402c-1.435,-0.433 -2.992,0.141 -3.808,1.488c-0.342,0.566 -0.584,1.207 -0.782,1.842c-1.225,3.937 -12.806,42.304 -13.077,43.657c-0.217,0.752 -0.322,1.559 -0.339,2.343c-0.055,2.57 1.64,4.298 4.202,4.304c0.697,0.002 1.404,-0.084 2.086,-0.23c0.801,-0.139 4.056,-0.971 7.905,-2.375c7.128,-2.603 11.418,-5.182 12.776,-6.215c1.333,-1.013 1.925,-2.325 1.434,-3.72c-0.508,-1.445 -1.841,-2.111 -3.445,-1.882" style="fill:#fcdc3f;fill-rule:nonzero;"/><path d="M100.9,18.769c-1.229,0 -2.663,0.059 -3.937,0.288c0.631,-3.805 1.327,-8.059 1.716,-10.429c0.102,-0.617 0.125,-1.266 0.075,-1.886c-0.119,-1.477 -1.186,-2.617 -2.575,-2.857c-1.39,-0.236 -2.776,0.483 -3.38,1.836c-0.253,0.568 -0.448,1.188 -0.557,1.804c-0.491,2.751 -1.349,8.059 -2.032,12.245c-3.194,0.144 -6.69,0.316 -9.549,0.457c-0.625,0.031 -1.265,0.145 -1.861,0.325c-1.419,0.427 -2.307,1.71 -2.25,3.119c0.063,1.408 1.057,2.612 2.507,2.917c0.609,0.128 1.256,0.188 1.881,0.165c2.451,-0.087 5.367,-0.235 8.16,-0.375c-0.727,4.195 -1.777,10.263 -2.293,13.397c-0.101,0.618 -0.123,1.267 -0.073,1.887c0.117,1.478 1.185,2.617 2.574,2.857c1.39,0.236 2.777,-0.483 3.38,-1.836c0.253,-0.569 0.448,-1.188 0.558,-1.804c0.662,-3.71 1.988,-11.559 2.658,-15.508c1.075,-0.229 2.332,-0.403 3.695,-0.403c4.036,0 4.469,1.307 4.469,4.468c0,3.161 -1.179,7.618 -2.402,12.352c-0.156,0.607 -0.219,1.254 -0.216,1.876c0.007,1.483 0.986,2.698 2.353,3.043c1.368,0.34 2.777,-0.272 3.48,-1.577c0.296,-0.546 0.543,-1.149 0.693,-1.756c1.314,-5.315 2.684,-9.882 2.684,-14.386c0,-6.71 -4.24,-10.219 -9.758,-10.219" style="fill:#fcdc3f;fill-rule:nonzero;"/><path d="M66.666,51.249c-1.521,0 -2.732,-1.517 -2.732,-4.828c0,-6.218 2.757,-17.208 2.757,-17.208c0,0 5.27,2.238 5.27,9.976c0,5.682 -1.447,12.06 -5.295,12.06m1.946,-28.121c2.424,-8.639 7.476,-15.535 11.172,-15.535c1.579,0 2.174,1.287 2.98,2.685c0.806,1.398 2.151,2.158 3.942,1.655c1.663,-0.467 2.082,-1.913 2.082,-2.808c0,-3.042 -3.397,-8.013 -9.273,-8.013c-7.916,0 -13.653,9.719 -16.94,19.381c-0.895,-0.346 -1.813,-0.698 -2.753,-1.068c-0.541,-0.214 -1.132,-0.351 -1.707,-0.422c-1.37,-0.169 -2.595,0.571 -3.075,1.793c-0.476,1.224 -0.06,2.597 1.042,3.428c0.722,0.544 3.434,1.872 4.692,2.408c-0.281,1.056 -3.333,12.721 -3.333,19.431c0,7.024 3.677,11.656 8.956,11.656c8.376,0 12.126,-9.405 12.126,-18.889c0,-8.445 -5.119,-13.095 -9.911,-15.702" style="fill:#fcdc3f;fill-rule:nonzero;"/><path d="M38.538,37.641c-3.079,0 -4.592,-2.794 -4.592,-5.455c0,-4.601 3.414,-8.804 7.614,-8.804c2.571,0 4.412,2.072 4.412,5.522c0,4.59 -3.46,8.737 -7.434,8.737m3.419,-20.708c-8.86,0 -14.472,8.568 -14.472,15.424c0,5.224 3.196,11.741 10.812,11.741c6.56,0 14.124,-5.804 14.124,-15.533c0,-6.975 -4.851,-11.632 -10.464,-11.632" style="fill:#fcdc3f;fill-rule:nonzero;"/><path d="M112.06,4.773c-2.494,0 -4.552,2.066 -4.597,4.614c-0.044,2.549 1.941,4.615 4.436,4.615c2.494,0 4.552,-2.066 4.597,-4.615c0.045,-2.548 -1.941,-4.614 -4.436,-4.614" style="fill:#fcdc3f;fill-rule:nonzero;"/><path d="M196.988,39.523c-0.249,-1.832 -2.019,-13.027 -2.338,-14.499c-0.37,-1.702 -1.903,-4.983 -5.631,-4.983c-4.324,0 -7.247,4.206 -9.438,7.477c-1.708,2.552 -4.174,6.673 -5.925,9.41c-0.235,-3.365 -0.626,-9.874 -0.904,-12.806c-0.402,-4.21 -2.672,-6.947 -5.595,-6.947c-2.624,0 -4.772,1.375 -6.132,3.531c-1.02,1.618 -1.964,3.29 -2.836,4.992c-1.24,2.421 -3.323,7.708 -4.575,10.872c0.161,-3.737 0.506,-10.945 0.649,-14.367c0.022,-0.535 0.039,-1.08 -0.037,-1.608c-0.21,-1.462 -1.321,-2.536 -2.733,-2.707c-1.373,-0.165 -2.699,0.6 -3.266,1.931c-0.173,0.403 -0.291,0.844 -0.343,1.279c-0.1,0.834 -0.163,1.675 -0.191,2.515c-0.151,4.296 -0.356,8.592 -0.39,12.89c-0.013,1.564 0.183,3.202 0.657,4.687c1.071,3.349 4.905,4.376 7.616,2.127c0.689,-0.572 1.288,-1.307 1.764,-2.066c1.508,-2.404 7.217,-13.952 9.015,-17.464c0.463,4.318 0.737,10.845 0.938,13.81c0.098,1.43 0.442,2.818 1.15,4.088c1.069,1.915 2.851,2.828 5.037,2.59c1.697,-0.186 3.213,-1.332 4.292,-2.604c0.815,-0.962 1.606,-1.956 2.297,-3.008c1.759,-2.674 3.429,-5.409 5.191,-8.083c0.698,-1.059 2.116,-3.312 3.1,-4.568c0.447,2.744 1.239,10.966 1.768,14.492c0.098,0.656 0.286,1.319 0.538,1.929c0.6,1.454 2.049,2.256 3.53,2.047c1.48,-0.214 2.646,-1.39 2.815,-2.954c0.071,-0.656 0.066,-1.345 -0.023,-2.003" style="fill:#fcdc3f;fill-rule:nonzero;"/><path d="M141.835,39.009c-1.469,-5.108 -1.201,-12.324 -1.076,-14.677c0.043,-0.835 0.093,-1.687 -0.018,-2.504c-0.184,-1.359 -1.232,-2.344 -2.525,-2.548c-1.338,-0.212 -2.62,0.424 -3.283,1.657c-0.176,0.327 -0.33,0.68 -0.411,1.039c-0.331,1.456 -1.04,6.385 -2.317,10.254c-2.15,6.511 -4.22,8.242 -6.699,8.242c-2.118,0 -3.239,-1.552 -3.239,-4.803c0,-3.519 1.51,-9.18 2.292,-11.815c0.152,-0.514 0.288,-1.025 0.373,-1.551c0.245,-1.534 -0.473,-2.932 -1.824,-3.484c-1.38,-0.565 -2.959,-0.108 -3.837,1.19c-0.361,0.534 -0.632,1.149 -0.841,1.762c-1.248,3.663 -2.64,9.514 -2.64,14.675c0,5.845 3.542,10.372 9.686,10.372c5.699,0 8.623,-4.171 9.378,-8.455c0.302,0.758 1.523,4.524 2.848,5.823c0.877,0.86 2.044,1.044 3.201,0.505c1.162,-0.542 1.731,-1.558 1.633,-2.785c-0.078,-0.98 -0.428,-1.947 -0.701,-2.897" style="fill:#fcdc3f;fill-rule:nonzero;"/></svg>
