<?xml version="1.0" encoding="UTF-8" standalone="no"?>
<!-- Created with Inkscape (http://www.inkscape.org/) -->

<svg
   xmlns:dc="http://purl.org/dc/elements/1.1/"
   xmlns:cc="http://creativecommons.org/ns#"
   xmlns:rdf="http://www.w3.org/1999/02/22-rdf-syntax-ns#"
   xmlns:svg="http://www.w3.org/2000/svg"
   xmlns="http://www.w3.org/2000/svg"
   xmlns:sodipodi="http://sodipodi.sourceforge.net/DTD/sodipodi-0.dtd"
   xmlns:inkscape="http://www.inkscape.org/namespaces/inkscape"
   width="510.836710709"
   height="195.757270188" viewBox="0 0 723.20135 277.13733"
   id="svg3513"
   version="1.1"
   inkscape:version="0.48.5 r10040"
   sodipodi:docname="drawing.svg">
  <defs
     id="defs3515">
    <clipPath
       clipPathUnits="userSpaceOnUse"
       id="clipPath3071">
      <path
         inkscape:connector-curvature="0"
         d="m 458.34,540.216 135.133,0 0,51.784 -135.133,0 0,-51.784 z"
         id="path3073" />
    </clipPath>
  </defs>
  <sodipodi:namedview
     id="base"
     pagecolor="#ffffff"
     bordercolor="#666666"
     borderopacity="1.0"
     inkscape:pageopacity="0.0"
     inkscape:pageshadow="2"
     inkscape:zoom="0.35"
     inkscape:cx="943.61057"
     inkscape:cy="126.65068"
     inkscape:document-units="px"
     inkscape:current-layer="layer1"
     showgrid="false"
     inkscape:window-width="1366"
     inkscape:window-height="705"
     inkscape:window-x="-8"
     inkscape:window-y="197"
     inkscape:window-maximized="1"
     fit-margin-left="0"
     fit-margin-right="0"
     fit-margin-top="0"
     fit-margin-bottom="0" />
  <metadata
     id="metadata3518">
    <rdf:RDF>
      <cc:Work
         rdf:about="">
        <dc:format>image/svg+xml</dc:format>
        <dc:type
           rdf:resource="http://purl.org/dc/dcmitype/StillImage" />
        <dc:title></dc:title>
      </cc:Work>
    </rdf:RDF>
  </metadata>
  <g
     inkscape:label="Layer 1"
     inkscape:groupmode="layer"
     id="layer1"
     transform="translate(-9.827905,-381.87557)">
    <g
       transform="matrix(5.3517943,0,0,-5.3517943,-2443.1151,3550.1378)"
       clip-path="url(#clipPath3071)"
       id="g3069">
      <g
         transform="translate(515.5468,570.4913)"
         id="g3075">
        <path
           inkscape:connector-curvature="0"
           id="path3077"
           style="fill:#00bfdf;fill-opacity:1;fill-rule:nonzero;stroke:none"
           d="m 0,0 c -4.353,0 -7.894,3.494 -7.894,7.788 0,4.294 3.541,7.788 7.894,7.788 4.353,0 7.894,-3.494 7.894,-7.788 C 7.894,3.494 4.353,0 0,0 M 7.894,19.076 C 5.65,20.608 2.93,21.509 0,21.509 c -6.444,0 -11.876,-4.347 -13.448,-10.223 0,0 -0.46,-1.604 -0.46,-3.614 0,-2.011 0.46,-3.382 0.46,-3.382 1.572,-5.876 7.004,-10.223 13.448,-10.223 2.93,0 5.65,0.901 7.894,2.433 l 0,-1.707 6.014,0 0,25.907 -6.014,0 0,-1.624 z" />
      </g>
      <g
         transform="translate(549.4979,585.2742)"
         id="g3079">
        <path
           inkscape:connector-curvature="0"
           id="path3081"
           style="fill:#00bfdf;fill-opacity:1;fill-rule:nonzero;stroke:none"
           d="m 0,0 c 0,-6.784 -4.865,-12.468 -11.334,-13.835 l 0,19.752 -6.014,0 0,-25.997 3.007,0 c 8.793,0 16.047,5.269 19.14,13.249 0.956,2.464 1.032,4.176 1.15,5.3 0.047,0.452 0.065,1.015 0.065,1.531 l 0,5.917 L 0,5.917 0,0 z" />
      </g>
      <g
         transform="translate(570.9512,586.0671)"
         id="g3083">
        <path
           inkscape:connector-curvature="0"
           id="path3085"
           style="fill:#00bfdf;fill-opacity:1;fill-rule:nonzero;stroke:none"
           d="m 0,0 c 3.033,0 5.67,-1.697 6.992,-4.179 l -13.984,0 C -5.671,-1.697 -3.033,0 0,0 m 3.481,-10.111 10.223,0 c 0.132,0.755 0.204,1.531 0.204,2.323 0,7.566 -6.239,13.721 -13.908,13.721 -3.966,0 -7.402,-1.571 -9.876,-4.012 -2.791,-2.753 -4.032,-6.293 -4.032,-9.709 0,-7.565 6.239,-13.72 13.908,-13.72 5.331,0 10.041,3.057 12.302,7.329 0.306,0.58 0.488,1.022 0.628,1.339 l -6.933,0 C 4.548,-14.512 2.399,-15.576 0,-15.576 c -3.533,0 -6.531,2.302 -7.536,5.465 l 11.017,0 z" />
      </g>
      <g
         transform="translate(493.0823,576.2469)"
         id="g3087">
        <path
           inkscape:connector-curvature="0"
           id="path3089"
           style="fill:#00bfdf;fill-opacity:1;fill-rule:nonzero;stroke:none"
           d="m 0,0 c 0,-2.957 -2.459,-5.364 -5.48,-5.364 -2.81,0 -5.129,2.08 -5.442,4.749 0.01,0.204 0.031,0.407 0.031,0.615 l 0,14.945 -0.07,0 -6.375,0 -0.07,0 0,-14.945 c 0,-0.208 0.021,-0.411 0.031,-0.615 -0.313,-2.669 -2.633,-4.749 -5.441,-4.749 -3.022,0 -5.481,2.407 -5.481,5.364 l 0,14.945 -6.445,0 0,-14.945 c 0,-6.512 5.35,-11.809 11.926,-11.809 3.415,0 6.491,1.437 8.667,3.723 2.177,-2.286 5.253,-3.723 8.669,-3.723 6.576,0 11.925,5.297 11.925,11.809 l 0,14.945 L 0,14.945 0,0 z" />
      </g>
    </g>
  </g>
</svg>
