<svg xmlns="http://www.w3.org/2000/svg" viewBox="0 0 250 443"><title>allcall-iphone</title><path fill="#19abff" d="M0 0h250v443H0z"/><path d="M55.87 67.67a17.54 17.54 0 0 1 6.6 6.63 18.59 18.59 0 0 1 2.41 9.37v15.52a2.43 2.43 0 0 1-.73 1.78 2.5 2.5 0 0 1-1.85.73 2.57 2.57 0 0 1-1.85-.69 2.39 2.39 0 0 1-.73-1.81v-4a16.32 16.32 0 0 1-5.87 5 17 17 0 0 1-7.85 1.83 17.38 17.38 0 0 1-15.48-9 18.8 18.8 0 0 1-2.34-9.34 18.57 18.57 0 0 1 2.41-9.37 17.53 17.53 0 0 1 6.6-6.63 19.31 19.31 0 0 1 18.68 0zm-2.54 28a12.85 12.85 0 0 0 4.79-4.92 15 15 0 0 0 0-14.06 13.3 13.3 0 0 0-23.23 0 15 15 0 0 0 0 14.06 12.77 12.77 0 0 0 4.82 4.92 13.36 13.36 0 0 0 6.83 1.78 13.18 13.18 0 0 0 6.79-1.83zM76 98.5a12.81 12.81 0 0 1-2.54-8.22V52.66a2.39 2.39 0 0 1 .73-1.81 2.48 2.48 0 0 1 1.81-.7 2.38 2.38 0 0 1 2.51 2.51v37.62a8.36 8.36 0 0 0 1.16 4.62 3.41 3.41 0 0 0 2.94 1.78h1.65a2 2 0 0 1 1.58.69 2.69 2.69 0 0 1 .59 1.82 2.26 2.26 0 0 1-.82 1.81 3.23 3.23 0 0 1-2.15.69h-.86A8 8 0 0 1 76 98.5zm18.61 0a12.81 12.81 0 0 1-2.54-8.22V52.66a2.39 2.39 0 0 1 .73-1.81 2.48 2.48 0 0 1 1.78-.69 2.38 2.38 0 0 1 2.51 2.51v37.61a8.36 8.36 0 0 0 1.16 4.62 3.41 3.41 0 0 0 2.94 1.78h1.65a2 2 0 0 1 1.58.69 2.69 2.69 0 0 1 .59 1.82 2.26 2.26 0 0 1-.82 1.81 3.23 3.23 0 0 1-2.15.69h-.86a8 8 0 0 1-6.57-3.19zm23.07 1.12a17.31 17.31 0 0 1-6.43-6.6 18.8 18.8 0 0 1-2.34-9.34 19.75 19.75 0 0 1 2.24-9.47 16.68 16.68 0 0 1 6.2-6.57 17 17 0 0 1 8.91-2.38 16.45 16.45 0 0 1 13.4 6.34 2 2 0 0 1 .53 1.39 2.26 2.26 0 0 1-1.12 1.85 2.23 2.23 0 0 1-1.25.4 2.65 2.65 0 0 1-1.91-1 13.49 13.49 0 0 0-4.36-3.27 12.53 12.53 0 0 0-5.28-1.09 12.08 12.08 0 0 0-6.47 1.75 11.63 11.63 0 0 0-4.39 4.87 16 16 0 0 0-1.55 7.13 14.85 14.85 0 0 0 1.65 7 12.28 12.28 0 0 0 4.62 4.92 13 13 0 0 0 6.8 1.78 12.44 12.44 0 0 0 8.51-2.84 2.73 2.73 0 0 1 1.78-.73 2.27 2.27 0 0 1 1.45.53 2.32 2.32 0 0 1 .92 1.78 1.88 1.88 0 0 1-.66 1.45 16.94 16.94 0 0 1-12 4.42 17.86 17.86 0 0 1-9.25-2.32zm58.25-31.95a17.55 17.55 0 0 1 6.6 6.63 18.59 18.59 0 0 1 2.41 9.37v15.52a2.43 2.43 0 0 1-.73 1.78 2.5 2.5 0 0 1-1.85.73 2.57 2.57 0 0 1-1.85-.69 2.39 2.39 0 0 1-.73-1.81v-4a16.32 16.32 0 0 1-5.87 5 17 17 0 0 1-7.85 1.82 17.38 17.38 0 0 1-15.48-9 18.8 18.8 0 0 1-2.34-9.34 18.58 18.58 0 0 1 2.41-9.37 17.54 17.54 0 0 1 6.6-6.63 19.31 19.31 0 0 1 18.68 0zm-2.54 28a12.85 12.85 0 0 0 4.79-4.92 15 15 0 0 0 0-14.06 13.3 13.3 0 0 0-23.23 0 15 15 0 0 0 0 14.06 12.77 12.77 0 0 0 4.82 4.92 13.36 13.36 0 0 0 6.83 1.78 13.18 13.18 0 0 0 6.79-1.83zm22.67 2.83a12.81 12.81 0 0 1-2.54-8.22V52.66a2.39 2.39 0 0 1 .73-1.81 2.48 2.48 0 0 1 1.78-.69 2.38 2.38 0 0 1 2.51 2.51v37.61a8.36 8.36 0 0 0 1.16 4.62 3.41 3.41 0 0 0 2.94 1.78h1.65a2 2 0 0 1 1.58.69 2.69 2.69 0 0 1 .59 1.82 2.26 2.26 0 0 1-.82 1.81 3.23 3.23 0 0 1-2.15.69h-.86a8 8 0 0 1-6.57-3.19zm18.61 0a12.81 12.81 0 0 1-2.54-8.22V52.66a2.39 2.39 0 0 1 .73-1.81 2.48 2.48 0 0 1 1.78-.69 2.38 2.38 0 0 1 2.51 2.51v37.61a8.36 8.36 0 0 0 1.16 4.62 3.41 3.41 0 0 0 2.94 1.78h1.65a2 2 0 0 1 1.58.69 2.69 2.69 0 0 1 .59 1.82 2.26 2.26 0 0 1-.82 1.81 3.23 3.23 0 0 1-2.15.69h-.86a8 8 0 0 1-6.57-3.19z" fill="#f2f2f2"/><rect x="21" y="141" width="206" height="38" rx="4.06" ry="4.06" fill="#f15a24" stroke="#000" stroke-miterlimit="10" stroke-width=".25"/><path d="M68.09 168.06v-17.84h2.08v16H78v1.88zm24.22-6.7a7.38 7.38 0 0 1-1.64 5.14 5.8 5.8 0 0 1-4.55 1.84 6 6 0 0 1-3.19-.84 5.56 5.56 0 0 1-2.15-2.42 8.42 8.42 0 0 1-.76-3.69 7.37 7.37 0 0 1 1.64-5.1 5.78 5.78 0 0 1 4.54-1.83 5.66 5.66 0 0 1 4.46 1.87 7.35 7.35 0 0 1 1.65 5.03zm-10.19 0a6.35 6.35 0 0 0 1 3.91 4.07 4.07 0 0 0 6 0 6.32 6.32 0 0 0 1-3.91 6.22 6.22 0 0 0-1-3.88 3.62 3.62 0 0 0-3-1.32 3.57 3.57 0 0 0-3 1.31 6.28 6.28 0 0 0-1 3.89zm19.09 6.95a5.71 5.71 0 0 1-4.5-1.79 7.35 7.35 0 0 1-1.59-5.02 7.58 7.58 0 0 1 1.62-5.19 5.82 5.82 0 0 1 4.61-1.83 9.16 9.16 0 0 1 1.93.21 6.38 6.38 0 0 1 1.51.49l-.62 1.72a9.54 9.54 0 0 0-1.46-.45 6.54 6.54 0 0 0-1.4-.18q-4.08 0-4.08 5.2a6.19 6.19 0 0 0 1 3.78 3.46 3.46 0 0 0 2.95 1.32 9 9 0 0 0 3.43-.72v1.79a7.31 7.31 0 0 1-3.4.67zm8.56-7.09a23.78 23.78 0 0 1 1.6-2l4.32-4.58h2.4l-5.42 5.7 5.8 7.68H116l-4.72-6.32-1.53 1.32v5h-2v-19h2v10.07q0 .67-.1 2.08zm20.23 5.05h-.11a4.76 4.76 0 0 1-4.2 2 5 5 0 0 1-4.09-1.77 7.9 7.9 0 0 1-1.46-5.1 8 8 0 0 1 1.46-5.14 4.93 4.93 0 0 1 4.08-1.83 4.86 4.86 0 0 1 4.17 2h.15l-.08-1v-6.38h2v19h-1.65zm-4.05.34a3.69 3.69 0 0 0 3-1.13 5.7 5.7 0 0 0 .93-3.64v-.43a6.72 6.72 0 0 0-.95-4.06 3.59 3.59 0 0 0-3-1.21 3.1 3.1 0 0 0-2.73 1.39 6.89 6.89 0 0 0-.95 3.91 6.6 6.6 0 0 0 .94 3.87 3.18 3.18 0 0 0 2.75 1.3zm21.81-5.25a7.39 7.39 0 0 1-1.65 5.11 5.81 5.81 0 0 1-4.55 1.84 6 6 0 0 1-3.19-.84 5.56 5.56 0 0 1-2.15-2.42 8.42 8.42 0 0 1-.76-3.69 7.37 7.37 0 0 1 1.64-5.1 5.79 5.79 0 0 1 4.54-1.83 5.66 5.66 0 0 1 4.46 1.87 7.35 7.35 0 0 1 1.66 5.06zm-10.19 0a6.35 6.35 0 0 0 1 3.91 4.07 4.07 0 0 0 6 0 6.32 6.32 0 0 0 1-3.91 6.22 6.22 0 0 0-1-3.88 3.63 3.63 0 0 0-3-1.32 3.56 3.56 0 0 0-3 1.31 6.28 6.28 0 0 0-1.01 3.89zm24.67 6.7l-2.45-7.85q-.23-.72-.87-3.27h-.1q-.49 2.14-.86 3.3l-2.53 7.82h-2.34l-3.65-13.38h2.12l2 7.68a31.09 31.09 0 0 1 .78 3.55h.1q.13-.7.43-1.8t.52-1.75l2.45-7.68H160l2.39 7.68a25.78 25.78 0 0 1 .93 3.53h.1a13.09 13.09 0 0 1 .26-1.35q.21-.92 2.55-9.85h2.1l-3.7 13.38zm17.67 0v-8.65a3.49 3.49 0 0 0-.75-2.44 3 3 0 0 0-2.33-.81 3.85 3.85 0 0 0-3.08 1.14 5.73 5.73 0 0 0-1 3.75v7h-2v-13.36h1.65l.33 1.83h.1a4.14 4.14 0 0 1 1.75-1.53 5.68 5.68 0 0 1 2.5-.54 5.08 5.08 0 0 1 3.64 1.17 5 5 0 0 1 1.22 3.73v8.73z" fill="#fff"/><rect x="21" y="194" width="206" height="38" rx="4.06" ry="4.06" fill="#eda629" stroke="#000" stroke-miterlimit="10" stroke-width=".25"/><rect x="21" y="247" width="206" height="38" rx="4.06" ry="4.06" fill="#2775ff" stroke="#000" stroke-miterlimit="10" stroke-width=".25"/><path d="M85 220.06h-9.92v-17.84H85v1.84h-7.84v5.75h7.4v1.83h-7.4v6.57H85zm6.61 0l-5.08-13.38h2.17l2.88 7.93a37.72 37.72 0 0 1 1.15 3.61h.1a27.18 27.18 0 0 1 .85-2.68q.71-2 3.2-8.87h2.17L94 220.06zm17.82 0l-.4-1.9h-.1a5.63 5.63 0 0 1-2 1.7 6.09 6.09 0 0 1-2.48.45 4.47 4.47 0 0 1-3.12-1 3.74 3.74 0 0 1-1.13-2.92q0-4.05 6.48-4.25l2.27-.07v-.83a3.4 3.4 0 0 0-.68-2.33 2.79 2.79 0 0 0-2.17-.75 8.83 8.83 0 0 0-3.78 1l-.62-1.55a9.54 9.54 0 0 1 2.17-.84 9.4 9.4 0 0 1 2.36-.31 5.1 5.1 0 0 1 3.55 1.06 4.43 4.43 0 0 1 1.15 3.41v9.13zm-4.58-1.43a4.11 4.11 0 0 0 3-1 3.84 3.84 0 0 0 1.08-2.91v-1.22l-2 .09a7.37 7.37 0 0 0-3.48.75 2.26 2.26 0 0 0-1.07 2.07 2.09 2.09 0 0 0 .67 1.67 2.76 2.76 0 0 0 1.81.56zm15.61 1.68a5.71 5.71 0 0 1-4.46-1.81 7.35 7.35 0 0 1-1.59-5.06 7.58 7.58 0 0 1 1.62-5.19 5.82 5.82 0 0 1 4.61-1.83 9.16 9.16 0 0 1 1.93.21 6.38 6.38 0 0 1 1.51.49l-.62 1.72a9.54 9.54 0 0 0-1.46-.45 6.54 6.54 0 0 0-1.4-.18q-4.08 0-4.08 5.2a6.19 6.19 0 0 0 1 3.78 3.46 3.46 0 0 0 2.95 1.32 9 9 0 0 0 3.43-.72v1.79a7.31 7.31 0 0 1-3.44.73zm8.46-13.62v8.68a3.49 3.49 0 0 0 .74 2.44 3 3 0 0 0 2.33.81 3.81 3.81 0 0 0 3.07-1.15 5.79 5.79 0 0 0 1-3.75v-7h2v13.38h-1.67l-.29-1.79h-.1a4 4 0 0 1-1.73 1.51 5.81 5.81 0 0 1-2.52.52 5.11 5.11 0 0 1-3.66-1.16 4.93 4.93 0 0 1-1.21-3.71v-8.75zm21.66 13.37l-.4-1.9h-.1a5.63 5.63 0 0 1-2 1.7 6.09 6.09 0 0 1-2.48.45 4.47 4.47 0 0 1-3.12-1 3.74 3.74 0 0 1-1.13-2.92q0-4.05 6.48-4.25l2.27-.07v-.83a3.4 3.4 0 0 0-.68-2.33 2.79 2.79 0 0 0-2.17-.75 8.83 8.83 0 0 0-3.78 1l-.62-1.55a9.56 9.56 0 0 1 2.17-.84 9.4 9.4 0 0 1 2.36-.31 5.1 5.1 0 0 1 3.55 1.06 4.43 4.43 0 0 1 1.15 3.41v9.13zm-4.58-1.42a4.11 4.11 0 0 0 3-1 3.84 3.84 0 0 0 1.08-2.91v-1.23l-2 .09a7.36 7.36 0 0 0-3.48.75 2.26 2.26 0 0 0-1.07 2.07 2.09 2.09 0 0 0 .67 1.67 2.76 2.76 0 0 0 1.8.56zm14.58 0a6.59 6.59 0 0 0 1-.08 6.67 6.67 0 0 0 .79-.16v1.55a3.7 3.7 0 0 1-1 .26 7.32 7.32 0 0 1-1.15.1q-3.88 0-3.88-4.09v-8h-1.92v-1l1.92-.84.85-2.86h1.17v3.1h3.88v1.57h-3.88v7.87a2.71 2.71 0 0 0 .57 1.86 2 2 0 0 0 1.65.72zm10.16 1.67a6.14 6.14 0 0 1-4.68-1.81 7 7 0 0 1-1.71-5 7.75 7.75 0 0 1 1.59-5.14 5.29 5.29 0 0 1 4.28-1.9 5 5 0 0 1 4 1.65 6.34 6.34 0 0 1 1.46 4.36v1.28h-9.22a5.3 5.3 0 0 0 1.19 3.58 4.12 4.12 0 0 0 3.18 1.22 10.77 10.77 0 0 0 4.27-.9v1.81a10.76 10.76 0 0 1-2 .67 11.46 11.46 0 0 1-2.36.18zm-.55-12.17a3.31 3.31 0 0 0-2.57 1 4.83 4.83 0 0 0-1.13 2.91h7a4.46 4.46 0 0 0-.85-2.94 3 3 0 0 0-2.45-.97zm-79.32 66.92l-2.22-5.68H81.5l-2.2 5.68h-2.1l7.06-17.92H86l7 17.92zM88 267.5l-2.08-5.53q-.4-1-.83-2.58a23.17 23.17 0 0 1-.77 2.58l-2.09 5.53zm9.2 7.56h-2v-19h2zm6.32 0h-2v-19h2zm18.74-16.24a5.84 5.84 0 0 0-4.65 2 7.9 7.9 0 0 0-1.7 5.36 8.06 8.06 0 0 0 1.64 5.41 5.84 5.84 0 0 0 4.68 1.91 16 16 0 0 0 4.26-.67v1.82a13.14 13.14 0 0 1-4.58.7 7.74 7.74 0 0 1-6.09-2.39q-2.14-2.39-2.14-6.8a10.72 10.72 0 0 1 1-4.83 7.41 7.41 0 0 1 3-3.2 9 9 0 0 1 4.58-1.12 11.06 11.06 0 0 1 4.91 1l-.88 1.78a9.46 9.46 0 0 0-4.03-.97zm9.85 16.24h-2v-19h2zm9.95.25a6.15 6.15 0 0 1-4.68-1.81 7 7 0 0 1-1.71-5 7.75 7.75 0 0 1 1.59-5.14 5.29 5.29 0 0 1 4.28-1.9 5 5 0 0 1 4 1.65 6.34 6.34 0 0 1 1.46 4.39v1.28h-9.22a5.31 5.31 0 0 0 1.19 3.58 4.12 4.12 0 0 0 3.18 1.22 10.76 10.76 0 0 0 4.27-.9v1.81a10.7 10.7 0 0 1-2 .67 11.45 11.45 0 0 1-2.36.15zm-.55-12.17a3.31 3.31 0 0 0-2.57 1 4.84 4.84 0 0 0-1.13 2.91h7a4.47 4.47 0 0 0-.85-2.94 3 3 0 0 0-2.45-.97zm17.15 11.92l-.4-1.9h-.1a5.63 5.63 0 0 1-2 1.7 6.09 6.09 0 0 1-2.48.45 4.47 4.47 0 0 1-3.12-1 3.74 3.74 0 0 1-1.13-2.92q0-4.05 6.48-4.25l2.27-.07v-.83a3.4 3.4 0 0 0-.68-2.33 2.79 2.79 0 0 0-2.17-.75 8.83 8.83 0 0 0-3.78 1l-.62-1.55a9.56 9.56 0 0 1 2.17-.84 9.4 9.4 0 0 1 2.36-.31 5.1 5.1 0 0 1 3.54 1.04 4.43 4.43 0 0 1 1.15 3.41v9.13zm-4.58-1.43a4.11 4.11 0 0 0 3-1 3.84 3.84 0 0 0 1.08-2.91v-1.22l-2 .09a7.35 7.35 0 0 0-3.48.75 2.26 2.26 0 0 0-1.07 2.07 2.09 2.09 0 0 0 .67 1.67 2.76 2.76 0 0 0 1.8.56zm16.36-12.19a7.94 7.94 0 0 1 1.6.15l-.28 1.88a6.9 6.9 0 0 0-1.46-.18 3.57 3.57 0 0 0-2.78 1.32 4.81 4.81 0 0 0-1.15 3.28v7.18h-2v-13.38H166l.23 2.48h.1a5.87 5.87 0 0 1 1.79-2 4 4 0 0 1 2.32-.73z" fill="#fff"/></svg>