<svg xmlns="http://www.w3.org/2000/svg" viewBox="0 0 402 235"><defs><linearGradient id="a" x1="201" y1="223" x2="201" gradientUnits="userSpaceOnUse"><stop offset="0" stop-color="#fff47f"/><stop offset="1" stop-color="#ff559c"/></linearGradient></defs><title>portfolio-imac</title><path fill="url(#a)" d="M0 0h402v223H0z"/><path d="M142.08 61.89a9.9 9.9 0 0 1-3.89 3.27 11.57 11.57 0 0 1-4.78 1 12.87 12.87 0 0 1-4.9-.91 11 11 0 0 1-3.81-2.54 11.66 11.66 0 0 1-2.47-3.89 14.06 14.06 0 0 1 0-9.85 11.71 11.71 0 0 1 2.47-3.88 11.24 11.24 0 0 1 3.81-2.56 12.68 12.68 0 0 1 4.9-.92 11.64 11.64 0 0 1 4.44.84 8.81 8.81 0 0 1 3.61 2.82l-1.78 1.48a6.46 6.46 0 0 0-2.79-2.41 8.47 8.47 0 0 0-3.48-.76 10.26 10.26 0 0 0-4.11.79 9.15 9.15 0 0 0-3.12 2.18 9.63 9.63 0 0 0-2 3.27 12.23 12.23 0 0 0 0 8.12 9.63 9.63 0 0 0 2 3.27 9.16 9.16 0 0 0 3.12 2.18 10.25 10.25 0 0 0 4.11.79 8.56 8.56 0 0 0 3.71-.87 9 9 0 0 0 1.73-1.12 7.18 7.18 0 0 0 1.45-1.63zm2.57-3.96a8.5 8.5 0 0 1 .59-3.22 7.68 7.68 0 0 1 1.65-2.54 7.35 7.35 0 0 1 2.54-1.67 8.63 8.63 0 0 1 3.23-.59 8.5 8.5 0 0 1 3.22.59 7.47 7.47 0 0 1 4.21 4.21 9 9 0 0 1 0 6.44 7.46 7.46 0 0 1-4.21 4.21 8.49 8.49 0 0 1-3.22.59 8.62 8.62 0 0 1-3.23-.59 7.35 7.35 0 0 1-2.54-1.67 7.68 7.68 0 0 1-1.65-2.54 8.5 8.5 0 0 1-.59-3.22zm2 0a7.06 7.06 0 0 0 .41 2.43 5.67 5.67 0 0 0 1.2 2 5.83 5.83 0 0 0 1.91 1.34 6.61 6.61 0 0 0 5 0 5.83 5.83 0 0 0 1.91-1.34 5.68 5.68 0 0 0 1.2-2 7.34 7.34 0 0 0 0-4.85 5.68 5.68 0 0 0-1.2-2 5.83 5.83 0 0 0-1.91-1.34 6.61 6.61 0 0 0-5 0 5.82 5.82 0 0 0-1.91 1.34 5.67 5.67 0 0 0-1.2 2 7.05 7.05 0 0 0-.43 2.42zm18.79-17.32h2v24.95h-2zm7.46 3.66a1.47 1.47 0 1 1 .43 1.06 1.43 1.43 0 0 1-.43-1.06zm.5 6h2v15.29h-2zm7.6 4.33v-4.25h2V52a5.12 5.12 0 0 0 .08 1h.1a5.35 5.35 0 0 1 2-2.16 5.77 5.77 0 0 1 3.23-.91 6.51 6.51 0 0 1 2.9.56 4.68 4.68 0 0 1 1.77 1.47 5.52 5.52 0 0 1 .89 2.1 11.94 11.94 0 0 1 .25 2.44v9.08h-2v-9a9.69 9.69 0 0 0-.17-1.8 4.78 4.78 0 0 0-.58-1.57 3 3 0 0 0-1.15-1.11 4 4 0 0 0-1.93-.41 5.63 5.63 0 0 0-2.06.38 4.44 4.44 0 0 0-1.68 1.15 5.59 5.59 0 0 0-1.12 1.95 8.29 8.29 0 0 0-.41 2.76v7.62h-2zm27.47-12.41h6.73a17.06 17.06 0 0 1 2.67.21 6.36 6.36 0 0 1 2.42.89 5.16 5.16 0 0 1 1.75 1.88 6.48 6.48 0 0 1 .68 3.18 4.82 4.82 0 0 1-1.06 3.1 5.19 5.19 0 0 1-3.14 1.75v.07a6.23 6.23 0 0 1 2.11.54A5.28 5.28 0 0 1 222.3 55a5.21 5.21 0 0 1 1.07 1.77 6.41 6.41 0 0 1 .38 2.24 6.23 6.23 0 0 1-.78 3.28 5.94 5.94 0 0 1-1.95 2 7.47 7.47 0 0 1-2.54 1 13.54 13.54 0 0 1-2.56.26h-7.46zm2.18 10.1h4.52a7.63 7.63 0 0 0 2.74-.41 4.74 4.74 0 0 0 1.65-1 3 3 0 0 0 .79-1.27 4.65 4.65 0 0 0-.21-3.27A3.42 3.42 0 0 0 219 45a4.45 4.45 0 0 0-1.62-.68 9.28 9.28 0 0 0-1.95-.2h-4.82zm0 11.29h5a8.56 8.56 0 0 0 3.08-.46 4.7 4.7 0 0 0 1.8-1.16 3.64 3.64 0 0 0 .84-1.47 5.32 5.32 0 0 0 .21-1.4 4.62 4.62 0 0 0-.5-2.21 4.4 4.4 0 0 0-1.29-1.5 5.31 5.31 0 0 0-1.8-.84 8 8 0 0 0-2-.26h-5.31zm17.19-5.65a8.51 8.51 0 0 1 .59-3.22 7.67 7.67 0 0 1 1.65-2.54 7.34 7.34 0 0 1 2.54-1.67 8.62 8.62 0 0 1 3.23-.59 8.51 8.51 0 0 1 3.22.59 7.46 7.46 0 0 1 4.21 4.21 9 9 0 0 1 0 6.44 7.46 7.46 0 0 1-4.21 4.21 8.5 8.5 0 0 1-3.22.59 8.61 8.61 0 0 1-3.23-.59 7.33 7.33 0 0 1-2.54-1.67 7.67 7.67 0 0 1-1.65-2.54 8.51 8.51 0 0 1-.59-3.22zm2 0a7.06 7.06 0 0 0 .41 2.43 5.66 5.66 0 0 0 1.2 2 5.83 5.83 0 0 0 1.91 1.34 6.6 6.6 0 0 0 5 0 5.82 5.82 0 0 0 1.91-1.34 5.68 5.68 0 0 0 1.21-2 7.34 7.34 0 0 0 0-4.85 5.67 5.67 0 0 0-1.21-2 5.81 5.81 0 0 0-1.91-1.34 6.6 6.6 0 0 0-5 0 5.82 5.82 0 0 0-1.91 1.34 5.65 5.65 0 0 0-1.2 2 7.05 7.05 0 0 0-.43 2.42zm18.46-17.32h2V53h.07a5.35 5.35 0 0 1 2-2.16 5.77 5.77 0 0 1 3.23-.91 6.51 6.51 0 0 1 2.9.56 4.68 4.68 0 0 1 1.77 1.47 5.53 5.53 0 0 1 .89 2.1 11.94 11.94 0 0 1 .25 2.44v9.08h-2v-9a9.73 9.73 0 0 0-.16-1.8 4.77 4.77 0 0 0-.58-1.57 3 3 0 0 0-1.16-1.11 4 4 0 0 0-1.93-.41 5.62 5.62 0 0 0-2.06.38 4.44 4.44 0 0 0-1.68 1.15 5.62 5.62 0 0 0-1.12 1.95 8.29 8.29 0 0 0-.41 2.76v7.62h-2zm18.35 13.99v-4.25h2V52a5.17 5.17 0 0 0 .08 1h.1a5.35 5.35 0 0 1 2-2.16 5.77 5.77 0 0 1 3.23-.91 6.51 6.51 0 0 1 2.9.56 4.68 4.68 0 0 1 1.77 1.47 5.53 5.53 0 0 1 .89 2.1 11.94 11.94 0 0 1 .25 2.44v9.08h-2v-9a9.73 9.73 0 0 0-.16-1.8 4.77 4.77 0 0 0-.58-1.57 3 3 0 0 0-1.16-1.11 4 4 0 0 0-1.93-.41 5.62 5.62 0 0 0-2.06.38 4.44 4.44 0 0 0-1.68 1.15 5.62 5.62 0 0 0-1.3 1.96 8.29 8.29 0 0 0-.41 2.76v7.62h-2zM132.41 73.43h1.36l5.5 9.92 1.39-9.92h1.06l-1.58 11.33h-1.36l-5.5-9.92-1.39 9.92h-1.06zm10.69 7.63a4.4 4.4 0 0 1 .5-1.56 4.61 4.61 0 0 1 1-1.23 4.28 4.28 0 0 1 1.34-.81 4.5 4.5 0 0 1 1.61-.29 3.83 3.83 0 0 1 1.52.29 3 3 0 0 1 1.75 2 4.07 4.07 0 0 1 .07 1.56 4.75 4.75 0 0 1-.51 1.56 4.41 4.41 0 0 1-3.92 2.33 3.87 3.87 0 0 1-1.53-.29 2.94 2.94 0 0 1-1.12-.81 3.14 3.14 0 0 1-.63-1.23 3.78 3.78 0 0 1-.08-1.52zm1 0a3.09 3.09 0 0 0 0 1.18 2.41 2.41 0 0 0 .45 1 2.25 2.25 0 0 0 .83.65 2.76 2.76 0 0 0 1.18.24 3.21 3.21 0 0 0 1.25-.24 3.36 3.36 0 0 0 1.74-1.61 3.89 3.89 0 0 0 .38-1.18 3.1 3.1 0 0 0 0-1.18 2.42 2.42 0 0 0-.45-1 2.25 2.25 0 0 0-.83-.65 2.76 2.76 0 0 0-1.18-.24 3.21 3.21 0 0 0-1.25.24 3.36 3.36 0 0 0-1.74 1.61 3.9 3.9 0 0 0-.42 1.18zm12.9-2.83h-2.11l-.64 4.77a.91.91 0 0 0 .15.77.89.89 0 0 0 .71.27 2.39 2.39 0 0 0 .57-.07 3.86 3.86 0 0 0 .57-.18v.86a5.39 5.39 0 0 1-.64.18 3.08 3.08 0 0 1-.64.08 2.13 2.13 0 0 1-.86-.15 1.31 1.31 0 0 1-.54-.41 1.33 1.33 0 0 1-.25-.6 2.33 2.33 0 0 1 0-.74l.67-4.82h-1.6l.11-.86h1.6l.3-2.13h1l-.3 2.13h2.11zm11.17 3.42q-.08.54-.14 1t-.09.8v1.33H167a5.15 5.15 0 0 1 0-.58q0-.3.06-.62a3.28 3.28 0 0 1-1.18 1.06 3.53 3.53 0 0 1-1.61.34 3.57 3.57 0 0 1-.93-.12 2.15 2.15 0 0 1-.78-.38 1.61 1.61 0 0 1-.5-.68 2 2 0 0 1-.09-1 2.21 2.21 0 0 1 .62-1.34 3.37 3.37 0 0 1 1.18-.74 5.51 5.51 0 0 1 1.38-.32q.72-.07 1.26-.07h1.12l.06-.45a1.4 1.4 0 0 0-.4-1.38 2.24 2.24 0 0 0-1.42-.42 3.84 3.84 0 0 0-2.38.83l-.46-.66a4.18 4.18 0 0 1 1.42-.78 5 5 0 0 1 1.54-.26 3 3 0 0 1 2.06.63 2.18 2.18 0 0 1 .52 2zm-1.84-.65a8.8 8.8 0 0 0-1.19.08 4.37 4.37 0 0 0-1.06.27 2.46 2.46 0 0 0-.8.51 1.33 1.33 0 0 0-.39.8 1.11 1.11 0 0 0 .06.6 1.05 1.05 0 0 0 .33.43 1.54 1.54 0 0 0 .5.26 2 2 0 0 0 .59.09 3.32 3.32 0 0 0 1.3-.22 2.5 2.5 0 0 0 1.4-1.4 3.86 3.86 0 0 0 .25-.92l.06-.5zm15.61 3.28a5.69 5.69 0 0 1-.72 2.22 4.47 4.47 0 0 1-1.22 1.31 3.81 3.81 0 0 1-1.37.62 5.88 5.88 0 0 1-1.27.16 5.09 5.09 0 0 1-2.06-.41 3 3 0 0 1-1.4-1.14l.86-.7a2.44 2.44 0 0 0 1.12 1.06 4.05 4.05 0 0 0 2.85.14 3 3 0 0 0 1.52-1.19 3.83 3.83 0 0 0 .38-.75 4.68 4.68 0 0 0 .2-.71q.06-.34.1-.54l.14-1a3.65 3.65 0 0 1-1.27 1.06 3.76 3.76 0 0 1-1.72.38 3.71 3.71 0 0 1-1.5-.3 3.21 3.21 0 0 1-1.82-2 3.31 3.31 0 0 1-.1-1.47 4 4 0 0 1 .52-1.47 4.68 4.68 0 0 1 1-1.2 5 5 0 0 1 1.37-.82 4.2 4.2 0 0 1 1.58-.3 3.15 3.15 0 0 1 1.62.38 2.4 2.4 0 0 1 1 1.06l.18-1.25h1zm-.46-3.28a2.82 2.82 0 0 0-.07-1.14 2.36 2.36 0 0 0-.5-.93 2.52 2.52 0 0 0-.84-.62A2.57 2.57 0 0 0 179 78a3.08 3.08 0 0 0-1.18.23 3.71 3.71 0 0 0-1 .62 3.47 3.47 0 0 0-.76.93 3.12 3.12 0 0 0-.38 1.14 2.8 2.8 0 0 0 .07 1.14 2.36 2.36 0 0 0 .5.93 2.51 2.51 0 0 0 .84.62 2.57 2.57 0 0 0 1.1.23 3.08 3.08 0 0 0 1.18-.23 3.7 3.7 0 0 0 1-.62 3.47 3.47 0 0 0 .76-.93 3.13 3.13 0 0 0 .35-1.06zm3.52-1.56q0-.21.06-.5t.06-.6v-.98h1c0 .28 0 .54-.08.8a2.45 2.45 0 0 0 0 .5 4.11 4.11 0 0 1 1.1-1.07 2.6 2.6 0 0 1 1.46-.42 2 2 0 0 1 .54.08l-.24.94a1 1 0 0 0-.35-.06 2.85 2.85 0 0 0-1.1.2 2.55 2.55 0 0 0-.83.55 2.69 2.69 0 0 0-.56.82 3.92 3.92 0 0 0-.29 1l-.56 4h-1zm10.74 2.21q-.08.54-.14 1t-.09.8v1.33h-.9a5.15 5.15 0 0 1 0-.58q0-.3.06-.62a3.28 3.28 0 0 1-1.18 1.06 3.53 3.53 0 0 1-1.61.34 3.57 3.57 0 0 1-.93-.12 2.15 2.15 0 0 1-.78-.38 1.61 1.61 0 0 1-.5-.68 2 2 0 0 1-.09-1 2.21 2.21 0 0 1 .62-1.34 3.37 3.37 0 0 1 1.18-.74 5.51 5.51 0 0 1 1.38-.32q.72-.07 1.26-.07h1.12l.06-.45a1.4 1.4 0 0 0-.4-1.38 2.24 2.24 0 0 0-1.5-.5 3.84 3.84 0 0 0-2.38.83l-.46-.66a4.18 4.18 0 0 1 1.42-.78 5 5 0 0 1 1.54-.26 3 3 0 0 1 2.06.63 2.18 2.18 0 0 1 .52 2zM193.9 81a8.8 8.8 0 0 0-1.19.08 4.37 4.37 0 0 0-1.06.27 2.46 2.46 0 0 0-.8.51 1.33 1.33 0 0 0-.39.8 1.11 1.11 0 0 0 .06.6 1.05 1.05 0 0 0 .33.43 1.54 1.54 0 0 0 .5.26 2 2 0 0 0 .59.09 3.32 3.32 0 0 0 1.3-.22 2.5 2.5 0 0 0 1.4-1.4 3.86 3.86 0 0 0 .25-.92l.11-.5zm4.78-3.64h1l-.18 1.3a2.93 2.93 0 0 1 .65-.66 4 4 0 0 1 .8-.46 4.3 4.3 0 0 1 .86-.27 4.37 4.37 0 0 1 .86-.09 3.82 3.82 0 0 1 1.52.29 3 3 0 0 1 1.75 2 4.07 4.07 0 0 1 .07 1.56 4.74 4.74 0 0 1-.51 1.56 4.41 4.41 0 0 1-3.92 2.33 4 4 0 0 1-.83-.09 3.38 3.38 0 0 1-.79-.27 2.69 2.69 0 0 1-.67-.46 1.92 1.92 0 0 1-.46-.66l-.7 4.94h-1zm.35 3.7a2.69 2.69 0 0 0 .06 1.18 2.46 2.46 0 0 0 .52 1 2.59 2.59 0 0 0 .89.65 2.83 2.83 0 0 0 1.18.24 3.21 3.21 0 0 0 1.25-.24 3.36 3.36 0 0 0 1.74-1.61 3.88 3.88 0 0 0 .38-1.18 3.07 3.07 0 0 0 0-1.18 2.42 2.42 0 0 0-.45-1 2.26 2.26 0 0 0-.83-.65 2.76 2.76 0 0 0-1.18-.24 3.35 3.35 0 0 0-1.26.24 3.76 3.76 0 0 0-1.07.65 3.59 3.59 0 0 0-.78 1 3.43 3.43 0 0 0-.48 1.14zm10.31-8.4h1l-.85 6a3.16 3.16 0 0 1 .47-.58 3.11 3.11 0 0 1 .63-.47 3.55 3.55 0 0 1 .77-.32 3.1 3.1 0 0 1 .86-.12 3 3 0 0 1 1.38.27 1.84 1.84 0 0 1 .76.71 2.31 2.31 0 0 1 .28 1 6.4 6.4 0 0 1 0 1.18l-.61 4.4h-1l.61-4.35a4.83 4.83 0 0 0 0-.87 1.92 1.92 0 0 0-.18-.76 1.25 1.25 0 0 0-.49-.54 1.74 1.74 0 0 0-.9-.2 2.93 2.93 0 0 0-1 .18 2.65 2.65 0 0 0-.9.56 3.26 3.26 0 0 0-.68.94 4.47 4.47 0 0 0-.39 1.34l-.51 3.7h-1zm8.38 4.7h1l-1 7.39h-1zm.18-2.93a.85.85 0 0 1 .28-.51.78.78 0 0 1 .54-.21.62.62 0 0 1 .49.21.6.6 0 0 1 .14.51.76.76 0 0 1-.27.51.81.81 0 0 1-.54.21.6.6 0 0 1-.48-.21.65.65 0 0 1-.16-.5zm8.81 9.24a4.27 4.27 0 0 1-1.37 1 4 4 0 0 1-3.06 0 2.93 2.93 0 0 1-1.12-.81 3.14 3.14 0 0 1-.63-1.23 3.75 3.75 0 0 1-.06-1.56 4.38 4.38 0 0 1 .5-1.56 4.62 4.62 0 0 1 1-1.23 4.27 4.27 0 0 1 1.34-.81 4.49 4.49 0 0 1 1.61-.29 3.14 3.14 0 0 1 1.46.34 3.3 3.3 0 0 1 1.11.94l-.85.58a3 3 0 0 0-.82-.73 2 2 0 0 0-1-.26 3.21 3.21 0 0 0-1.25.24 3.42 3.42 0 0 0-1 .65 3.39 3.39 0 0 0-.72 1 3.91 3.91 0 0 0-.38 1.18 3.09 3.09 0 0 0 0 1.18 2.4 2.4 0 0 0 .45 1 2.24 2.24 0 0 0 .83.65 2.75 2.75 0 0 0 1.18.24 2.48 2.48 0 0 0 1.15-.28 3.55 3.55 0 0 0 1-.74zm1.63-.8a1.71 1.71 0 0 0 .77.9 2.36 2.36 0 0 0 1.2.31 2.26 2.26 0 0 0 1.21-.37 1.76 1.76 0 0 0 .45-.42 1.25 1.25 0 0 0 .23-.57.89.89 0 0 0-.1-.62 1.1 1.1 0 0 0-.44-.38 3.33 3.33 0 0 0-.66-.24l-.78-.18a7 7 0 0 1-.78-.22 2.13 2.13 0 0 1-.66-.35 1.41 1.41 0 0 1-.42-.57 1.62 1.62 0 0 1-.06-.87 2.18 2.18 0 0 1 .36-.94 2.51 2.51 0 0 1 .68-.66 3 3 0 0 1 .86-.39 3.48 3.48 0 0 1 .93-.13 3.16 3.16 0 0 1 1.53.34 1.93 1.93 0 0 1 .89 1.06l-.94.51a1.74 1.74 0 0 0-.57-.78 1.7 1.7 0 0 0-1-.26 2 2 0 0 0-.54.08 2.46 2.46 0 0 0-.54.22 1.44 1.44 0 0 0-.43.37 1.1 1.1 0 0 0-.22.51.76.76 0 0 0 .22.74 2.08 2.08 0 0 0 .76.38 9.66 9.66 0 0 0 1 .23 3.9 3.9 0 0 1 1 .31 1.52 1.52 0 0 1 .89 1.78 2.39 2.39 0 0 1-.36 1 2.66 2.66 0 0 1-.69.71 3 3 0 0 1-.91.43 3.73 3.73 0 0 1-1 .14 3.79 3.79 0 0 1-1.7-.37 2.15 2.15 0 0 1-1.06-1.14zm16.88-1.22q-.08.54-.14 1t-.09.8v1.33H244a5.15 5.15 0 0 1 0-.58 6.2 6.2 0 0 1 .06-.62 3.27 3.27 0 0 1-1.18 1.06 3.53 3.53 0 0 1-1.61.34 3.57 3.57 0 0 1-.93-.12 2.16 2.16 0 0 1-.78-.38 1.62 1.62 0 0 1-.5-.68 2 2 0 0 1-.09-1 2.2 2.2 0 0 1 .62-1.34 3.38 3.38 0 0 1 1.18-.74 5.52 5.52 0 0 1 1.38-.32q.72-.07 1.26-.07h1.12l.06-.45a1.4 1.4 0 0 0-.4-1.38 2.24 2.24 0 0 0-1.42-.42 3.84 3.84 0 0 0-2.38.83l-.46-.66a4.18 4.18 0 0 1 1.42-.78 5 5 0 0 1 1.54-.26 3 3 0 0 1 2.06.63 2.18 2.18 0 0 1 .52 2zm-1.84-.65a8.8 8.8 0 0 0-1.19.08 4.36 4.36 0 0 0-1.06.27 2.45 2.45 0 0 0-.8.51 1.33 1.33 0 0 0-.39.8 1.1 1.1 0 0 0 .06.6 1.05 1.05 0 0 0 .33.43 1.53 1.53 0 0 0 .5.26 2 2 0 0 0 .59.09 3.32 3.32 0 0 0 1.3-.22 2.51 2.51 0 0 0 1.4-1.4 3.91 3.91 0 0 0 .25-.92l.06-.5zm4.71-1.56q0-.21.06-.5t.06-.6v-.98h1c0 .28 0 .54-.08.8a2.5 2.5 0 0 0 0 .5 4.09 4.09 0 0 1 1.1-1.07 2.6 2.6 0 0 1 1.46-.42 2 2 0 0 1 .54.08l-.24.94a1 1 0 0 0-.35-.06 2.85 2.85 0 0 0-1.1.2 2.55 2.55 0 0 0-.83.55 2.68 2.68 0 0 0-.56.82 3.94 3.94 0 0 0-.29 1l-.56 4h-1zm9.12-1.21h-2.11l-.68 4.77a.91.91 0 0 0 .15.77.89.89 0 0 0 .71.27 2.39 2.39 0 0 0 .57-.07 3.86 3.86 0 0 0 .57-.18v.86a5.33 5.33 0 0 1-.64.18 3.08 3.08 0 0 1-.64.08 2.13 2.13 0 0 1-.86-.15 1.31 1.31 0 0 1-.54-.41 1.34 1.34 0 0 1-.25-.6 2.33 2.33 0 0 1 0-.74l.67-4.82h-1.6l.11-.86h1.6l.3-2.13h1l-.3 2.13h2.11zm2-.87h1l-1 7.39h-1zm.18-2.93a.85.85 0 0 1 .28-.51.78.78 0 0 1 .54-.21.62.62 0 0 1 .49.21.6.6 0 0 1 .14.51.76.76 0 0 1-.27.51.81.81 0 0 1-.54.21.6.6 0 0 1-.48-.21.65.65 0 0 1-.17-.5zm2.74 8.44a1.71 1.71 0 0 0 .77.9 2.36 2.36 0 0 0 1.2.31 2.26 2.26 0 0 0 1.21-.37 1.76 1.76 0 0 0 .45-.42 1.25 1.25 0 0 0 .23-.57.89.89 0 0 0-.1-.62 1.1 1.1 0 0 0-.44-.38 3.33 3.33 0 0 0-.66-.24l-.78-.18a7 7 0 0 1-.78-.22 2.13 2.13 0 0 1-.66-.35 1.41 1.41 0 0 1-.42-.57 1.62 1.62 0 0 1-.06-.87 2.18 2.18 0 0 1 .36-.94 2.51 2.51 0 0 1 .68-.66 3 3 0 0 1 .86-.39 3.48 3.48 0 0 1 .93-.13 3.16 3.16 0 0 1 1.53.34 1.93 1.93 0 0 1 .89 1.06l-.94.51a1.74 1.74 0 0 0-.57-.78 1.7 1.7 0 0 0-1-.26 2 2 0 0 0-.54.08 2.46 2.46 0 0 0-.54.22 1.44 1.44 0 0 0-.43.37 1.1 1.1 0 0 0-.22.51.76.76 0 0 0 .22.74 2.08 2.08 0 0 0 .76.38 9.66 9.66 0 0 0 1 .23 3.9 3.9 0 0 1 1 .31 1.52 1.52 0 0 1 .89 1.78 2.39 2.39 0 0 1-.36 1 2.66 2.66 0 0 1-.69.71 3 3 0 0 1-.91.43 3.73 3.73 0 0 1-1 .14 3.79 3.79 0 0 1-1.7-.37 2.15 2.15 0 0 1-1.06-1.14zm11.08-4.64h-2.11l-.68 4.77a.91.91 0 0 0 .15.77.89.89 0 0 0 .71.27 2.39 2.39 0 0 0 .57-.07 3.86 3.86 0 0 0 .57-.18v.86a5.33 5.33 0 0 1-.64.18 3.08 3.08 0 0 1-.64.08 2.13 2.13 0 0 1-.86-.15 1.31 1.31 0 0 1-.54-.41 1.34 1.34 0 0 1-.25-.6 2.33 2.33 0 0 1 0-.74l.67-4.82h-1.6l.11-.86h1.6l.3-2.13h1l-.3 2.13h2.11z" fill="#fff"/><rect x="172" y="117" width="65" height="17" rx="8.5" ry="8.5" fill="#f15a24"/><path d="M177 121.86h2.49a2.9 2.9 0 0 1 1.12.19 1.89 1.89 0 0 1 .69.47 1.6 1.6 0 0 1 .35.64 2.39 2.39 0 0 1 0 1.37 1.6 1.6 0 0 1-.35.64 1.91 1.91 0 0 1-.69.47 2.92 2.92 0 0 1-1.12.18H178v3.12h-1zm1 3.12h1.26a3.41 3.41 0 0 0 .56 0 1.49 1.49 0 0 0 .49-.17.91.91 0 0 0 .35-.34 1.38 1.38 0 0 0 0-1.17.9.9 0 0 0-.35-.35 1.49 1.49 0 0 0-.49-.17 3.52 3.52 0 0 0-.56 0H178zm8.18 4.14a3.81 3.81 0 0 1-1.49-.29 3.47 3.47 0 0 1-1.17-.78 3.63 3.63 0 0 1-.76-1.18 4.07 4.07 0 0 1 0-2.94 3.64 3.64 0 0 1 .76-1.18 3.47 3.47 0 0 1 1.17-.78 4 4 0 0 1 3 0 3.46 3.46 0 0 1 1.17.78 3.65 3.65 0 0 1 .76 1.18 4.07 4.07 0 0 1 0 2.94 3.64 3.64 0 0 1-.76 1.18 3.46 3.46 0 0 1-1.17.78 3.81 3.81 0 0 1-1.51.29zm0-.9a2.58 2.58 0 0 0 1.94-.83 2.68 2.68 0 0 0 .54-.9 3.25 3.25 0 0 0 0-2.19 2.68 2.68 0 0 0-.54-.9 2.65 2.65 0 0 0-3.88 0 2.66 2.66 0 0 0-.54.9 3.25 3.25 0 0 0 0 2.19 2.66 2.66 0 0 0 .54.9 2.58 2.58 0 0 0 1.94.83zm5.07-6.36h2.49a2.9 2.9 0 0 1 1.12.19 1.89 1.89 0 0 1 .69.47 1.6 1.6 0 0 1 .35.64 2.52 2.52 0 0 1 .1.69 1.82 1.82 0 0 1-.12.65 1.85 1.85 0 0 1-.34.57 2 2 0 0 1-.55.43 1.9 1.9 0 0 1-.72.21l2 3.23h-1.2l-1.8-3.12h-1.07v3.12h-1zm1 3.12h1.26a3.41 3.41 0 0 0 .56 0 1.49 1.49 0 0 0 .49-.17.91.91 0 0 0 .35-.34 1.38 1.38 0 0 0 0-1.17.9.9 0 0 0-.35-.35 1.49 1.49 0 0 0-.49-.17 3.52 3.52 0 0 0-.56 0h-1.26zm6.41-2.22h-2.28v-.9h5.52v.9h-2.28v6.18h-1zm4.26-.9h4.45v.9h-3.49V125h3.25v.9h-3.25v3.06h-1zm8.99 7.26a3.81 3.81 0 0 1-1.49-.29 3.45 3.45 0 0 1-1.16-.78 3.6 3.6 0 0 1-.76-1.18 4.06 4.06 0 0 1 0-2.94 3.61 3.61 0 0 1 .76-1.18 3.45 3.45 0 0 1 1.16-.78 4 4 0 0 1 3 0 3.47 3.47 0 0 1 1.17.78 3.65 3.65 0 0 1 .76 1.18 4.09 4.09 0 0 1 0 2.94 3.64 3.64 0 0 1-.76 1.18 3.47 3.47 0 0 1-1.17.78 3.81 3.81 0 0 1-1.51.29zm0-.9a2.58 2.58 0 0 0 1.94-.83 2.68 2.68 0 0 0 .54-.9 3.26 3.26 0 0 0 0-2.19 2.68 2.68 0 0 0-.54-.9 2.65 2.65 0 0 0-3.88 0 2.64 2.64 0 0 0-.54.9 3.24 3.24 0 0 0 0 2.19 2.64 2.64 0 0 0 .54.9 2.58 2.58 0 0 0 1.94.83zm5.09-6.36h1V128h3.25v.9H217zm5.17 0h1v7.08h-1zm6.03 7.26a3.81 3.81 0 0 1-1.49-.29 3.47 3.47 0 0 1-1.17-.78 3.64 3.64 0 0 1-.76-1.18 4.06 4.06 0 0 1 0-2.94 3.65 3.65 0 0 1 .76-1.18 3.47 3.47 0 0 1 1.17-.78 4 4 0 0 1 3 0 3.48 3.48 0 0 1 1.17.78 3.65 3.65 0 0 1 .76 1.18 4.07 4.07 0 0 1 0 2.94 3.64 3.64 0 0 1-.76 1.18 3.48 3.48 0 0 1-1.17.78 3.81 3.81 0 0 1-1.51.29zm0-.9a2.58 2.58 0 0 0 1.94-.83 2.66 2.66 0 0 0 .54-.9 3.24 3.24 0 0 0 0-2.19 2.66 2.66 0 0 0-.54-.9 2.65 2.65 0 0 0-3.88 0 2.68 2.68 0 0 0-.54.9 3.26 3.26 0 0 0 0 2.19 2.68 2.68 0 0 0 .54.9 2.58 2.58 0 0 0 1.94.83z" fill="#fff"/><path d="M0 177.15c41.46.66 65.8 17.75 97.35 17.75s97.35-7.89 123.48-9.2 69.4 32.21 114.47 27 66.7-13.8 66.7-13.8V235H0" fill="#393f3d"/></svg>