<svg xmlns="http://www.w3.org/2000/svg" viewBox="0 0 380 234"><title>udacity-macbook</title><path fill="#fff" d="M0 0h380v234H0z"/><path d="M142.33 121a7.67 7.67 0 0 1-7.93 7.45c-4.52 0-7.93-3.3-7.93-7.45v-14.57H124v14.65c0 5.25 4 9.77 10.38 9.77s10.38-4.64 10.38-9.77v-14.65h-2.44zm26-14.53h-7.69v24.41h7.69c7.08 0 11.84-4.64 11.84-12.21s-4.76-12.24-11.84-12.24zm-.24 22h-5v-19.6h5c5.74 0 9.64 4 9.64 9.77 0 6.1-3.78 9.77-9.64 9.77zm68.24 0c-5.62 0-9.64-4.64-9.64-10.25a9.5 9.5 0 0 1 9.64-9.89 11.42 11.42 0 0 1 7.2 2.56l1.22-1.71s-2.81-3.05-8.54-3.05a11.86 11.86 0 0 0-12 12.08c0 6.84 5 12.7 12.08 12.7a12 12 0 0 0 9-4l-1.29-1.68a11.53 11.53 0 0 1-7.69 3.17zm24.41 2.44h2.44v-24.48h-2.44zm15.87-22h8.54v22h2.44v-22h8.54v-2.44h-19.52zm47.85-2.44l-7.57 11-7.69-11h-2.69l9.16 13.53v10.86h2.44V120l9-13.55zm-123.66 0l-9.64 24.41h2.56l2.56-7 10.74-2.2 3.42 9.16H213l-9.64-24.41h-2.56zm-3.42 14.77l4.76-11.47h.12l4 9.77z" fill="#2d3c49"/><path d="M68.24 93L52 102.4v21.48a17.87 17.87 0 0 0 17.82 17.94 18.75 18.75 0 0 0 9-2.32L92 131.94a16.38 16.38 0 0 0 8.79-14.53V95l-3.17-1.83-13.92 7.45V124a23.7 23.7 0 0 1-.24 2.93 17.29 17.29 0 0 1-.85 2.69l-.37.73a17.41 17.41 0 0 1-5.13-2.2 12.23 12.23 0 0 1-3.54-3.54 14.89 14.89 0 0 1-2.2-7.08v-22.7zm7.93 44.19a22.47 22.47 0 0 1-3.05 1.1 10.93 10.93 0 0 1-2.81.24 12 12 0 0 1-2.93-.37 17.29 17.29 0 0 1-2.69-.85 15.64 15.64 0 0 1-2.44-1.31 13.21 13.21 0 0 1-3.91-4 15.64 15.64 0 0 1-1.34-2.5 18.87 18.87 0 0 1-.85-2.81 5.49 5.49 0 0 1-.49-2.81v-19.65l12.21-7.45v20.63a16.59 16.59 0 0 0 13.06 16 3.29 3.29 0 0 1-.85 1 11.68 11.68 0 0 1-3.91 2.81zm20.75-17.09a14.27 14.27 0 0 1-.73 2.44 19.75 19.75 0 0 1-1.22 2.2 12.71 12.71 0 0 1-3.91 3.66 16.7 16.7 0 0 1-4.88 1.71A17 17 0 0 0 87.4 124v-21.6l9.77-5.62v20.63a9.58 9.58 0 0 1-.25 2.69z" fill="#02b3e4"/></svg>